<?xml version="1.0" encoding="utf-8"?>
<!-- Generator: Adobe Illustrator 16.0.0, SVG Export Plug-In . SVG Version: 6.00 Build 0)  -->
<!DOCTYPE svg PUBLIC "-//W3C//DTD SVG 1.1//EN" "http://www.w3.org/Graphics/SVG/1.1/DTD/svg11.dtd">
<svg version="1.1" id="Vrstva_1" xmlns="http://www.w3.org/2000/svg" xmlns:xlink="http://www.w3.org/1999/xlink" x="0px" y="0px"
	 width="586.346px" height="170.379px" viewBox="0 0 586.346 170.379" enable-background="new 0 0 586.346 170.379"
	 xml:space="preserve">
<g>
	<path fill="#FFFFFF" d="M576.058,74.72c0.078,1.427,1.391,2.636,2.805,2.585c1.426-0.051,2.656-1.337,2.635-2.757
		c-0.02-1.427-1.281-2.676-2.707-2.684C577.288,71.855,575.974,73.231,576.058,74.72 M565.956,84.473
		c-0.184,1.432,1.174,2.875,2.646,2.949c1.453,0.074,2.859-1.242,2.902-2.713c0.043-1.465-1.293-2.905-2.764-2.836
		C567.134,81.95,566.161,82.893,565.956,84.473 M544.03,84.5c-0.066,2.682,1.918,4.723,4.59,4.719
		c2.592-0.005,4.551-1.951,4.57-4.539c0.018-2.594-1.91-4.578-4.49-4.619C546.106,80.019,544.095,81.93,544.03,84.5
		 M535.173,154.909c-0.063,1.76,1.207,3.09,2.961,3.1c1.68,0.01,2.939-1.191,2.998-2.859c0.063-1.762-1.207-3.09-2.961-3.102
		C536.491,152.04,535.231,153.241,535.173,154.909 M534.878,134.985c0.035,1.73,1.463,3.164,3.191,3.207
		c1.809,0.047,3.338-1.434,3.357-3.242c0.018-1.809-1.482-3.316-3.291-3.307C536.325,131.653,534.841,133.176,534.878,134.985
		 M534.878,114.815c0.004,1.809,1.523,3.297,3.33,3.266c1.811-0.033,3.279-1.576,3.219-3.381c-0.059-1.729-1.5-3.145-3.232-3.168
		C536.386,111.506,534.874,113.002,534.878,114.815 M534.698,94.655c-0.023,1.893,1.469,3.445,3.363,3.494
		c1.969,0.051,3.578-1.541,3.545-3.512c-0.033-1.895-1.568-3.4-3.461-3.395C536.249,91.247,534.724,92.759,534.698,94.655
		 M524.19,165.004c-0.049,2.141,1.785,4,3.928,3.986c2.076-0.014,3.838-1.75,3.887-3.828c0.049-2.139-1.785-4-3.932-3.986
		C525.999,161.192,524.237,162.926,524.19,165.004 M503.157,165.174c0.063,2.531,2.299,4.73,4.82,4.736
		c2.588,0.006,4.896-2.344,4.836-4.918c-0.061-2.531-2.299-4.73-4.82-4.736C505.407,160.25,503.097,162.602,503.157,165.174
		 M486.171,162.686c-0.029,1.01,0.607,1.684,1.598,1.764c1.082,0.086,1.797-0.57,1.873-1.629c0.076-1.082-0.623-1.674-1.672-1.879
		C486.915,161.057,486.204,161.608,486.171,162.686 M474.839,155.008c-0.01,1.758,1.303,3.041,3.063,3
		c1.746-0.043,2.99-1.4,2.896-3.162c-0.09-1.658-1.379-2.838-3.061-2.799C476.065,152.088,474.851,153.331,474.839,155.008
		 M474.546,134.79c-0.072,1.805,1.389,3.359,3.195,3.402s3.336-1.438,3.354-3.246c0.016-1.809-1.488-3.316-3.297-3.303
		C476.069,131.655,474.612,133.063,474.546,134.79 M477.917,118.081c1.809-0.055,3.26-1.621,3.178-3.422
		c-0.08-1.727-1.545-3.127-3.273-3.127c-1.811,0-3.303,1.514-3.275,3.322C474.571,116.663,476.112,118.137,477.917,118.081
		 M463.856,165.153c0.043,2.08,1.797,3.818,3.877,3.838c2.143,0.021,3.98-1.838,3.938-3.977c-0.043-2.08-1.799-3.818-3.875-3.838
		C465.653,161.157,463.813,163.014,463.856,165.153 M442.825,165.114c0.021,2.527,2.225,4.75,4.756,4.797
		c2.576,0.049,4.92-2.277,4.9-4.857c-0.021-2.527-2.227-4.75-4.758-4.797C445.149,160.209,442.806,162.534,442.825,165.114
		 M431.044,44.54c0.076-1.084-0.623-1.675-1.672-1.879c-1.053,0.113-1.766,0.663-1.799,1.744c-0.029,1.009,0.609,1.683,1.598,1.762
		C430.253,46.254,430.968,45.597,431.044,44.54 M430.573,64.483c-0.025-1.502-1.221-2.674-2.723-2.572
		c-1.563,0.106-2.441,1-2.525,2.563c-0.08,1.503,1.111,2.681,2.615,2.683C429.444,67.16,430.599,65.988,430.573,64.483
		 M430.571,84.614c-0.012-1.504-1.199-2.645-2.705-2.603c-1.5,0.042-2.66,1.253-2.541,2.754c0.125,1.562,1.033,2.429,2.596,2.493
		C429.425,87.319,430.587,86.118,430.571,84.614 M425.897,104.442c-0.035,1.178,0.709,1.965,1.863,2.057
		c1.266,0.102,2.1-0.666,2.188-1.9c0.092-1.266-0.725-1.957-1.953-2.195C426.767,102.536,425.935,103.178,425.897,104.442
		 M425.897,124.846c-0.035,1.18,0.709,1.969,1.863,2.059c1.266,0.102,2.1-0.664,2.188-1.9c0.092-1.266-0.725-1.957-1.953-2.195
		C426.767,122.942,425.935,123.584,425.897,124.846 M425.159,164.965c-0.061,1.48,0.85,2.445,2.316,2.498
		c1.486,0.053,2.275-0.92,2.506-2.365c-0.207-1.443-0.982-2.406-2.471-2.398C426.128,162.708,425.218,163.6,425.159,164.965
		 M402.604,165.006c-0.053,2.574,2.268,4.92,4.85,4.904c2.525-0.016,4.752-2.219,4.805-4.75c0.053-2.574-2.27-4.92-4.852-4.904
		C404.882,160.274,402.653,162.475,402.604,165.006 M383.153,165.069c-0.006,2.385,1.768,4.174,4.152,4.182
		c2.387,0.006,4.174-1.768,4.182-4.152c0.006-2.385-1.77-4.174-4.152-4.182C384.948,160.911,383.159,162.686,383.153,165.069
		 M372.796,155.083c0.031,2.426,2.105,4.447,4.523,4.414c2.424-0.033,4.447-2.104,4.414-4.523c-0.033-2.426-2.104-4.445-4.523-4.414
		C374.784,150.592,372.765,152.663,372.796,155.083 M363.304,144.971c-0.004,2.068,1.727,3.846,3.803,3.908
		c2.137,0.064,4.008-1.758,4.01-3.904c0-2.068-1.729-3.848-3.805-3.908C365.175,141,363.304,142.823,363.304,144.971
		 M347.288,145.235c-0.014,2.162,1.596,3.793,3.754,3.807c2.162,0.014,3.795-1.596,3.809-3.754c0.012-2.162-1.598-3.795-3.754-3.807
		C348.935,141.467,347.304,143.077,347.288,145.235 M324.161,165.157c0.043,1.482,1.426,2.795,2.9,2.752
		c1.48-0.043,2.795-1.426,2.752-2.896c-0.043-1.482-1.428-2.797-2.9-2.754C325.433,162.301,324.118,163.684,324.161,165.157
		 M302.048,165.04c-0.027,2.504,2.156,4.777,4.686,4.871c2.576,0.098,4.939-2.178,4.969-4.783c0.031-2.502-2.154-4.775-4.682-4.871
		C304.444,160.159,302.077,162.434,302.048,165.04 M283.047,165.059c-0.012,2.154,1.635,3.779,3.794,3.742
		c2.068-0.033,3.632-1.619,3.643-3.693c0.012-2.154-1.634-3.779-3.793-3.742C284.622,161.401,283.059,162.985,283.047,165.059
		 M276.246,155.737c-0.03,1.008,0.607,1.684,1.597,1.762c1.082,0.086,1.796-0.568,1.872-1.627c0.078-1.084-0.622-1.674-1.671-1.879
		C276.989,154.108,276.278,154.657,276.246,155.737 M272.93,134.891c-0.014,2.16,1.596,3.795,3.754,3.807
		c2.162,0.014,3.794-1.596,3.807-3.754c0.014-2.162-1.595-3.793-3.754-3.807C274.576,131.124,272.943,132.733,272.93,134.891
		 M276.742,120.079c2.837-0.018,5.23-2.418,5.241-5.254c0.011-2.832-2.366-5.25-5.203-5.291c-2.83-0.041-5.272,2.316-5.342,5.154
		C271.366,117.59,273.832,120.098,276.742,120.079 M242.712,165.026c-0.031,2.219,1.705,3.939,3.924,3.891
		c2.135-0.049,3.763-1.732,3.741-3.875c-0.023-2.137-1.686-3.787-3.825-3.791C244.412,161.247,242.742,162.889,242.712,165.026
		 M221.148,165.172c0.048,2.852,2.423,5.189,5.274,5.195c2.929,0.006,5.345-2.445,5.296-5.373c-0.048-2.85-2.424-5.189-5.274-5.195
		C223.515,159.792,221.099,162.245,221.148,165.172 M202.279,164.825c-0.161,2.164,1.685,4.211,3.885,4.311
		c2.086,0.094,4.045-1.674,4.202-3.793c0.16-2.162-1.686-4.211-3.885-4.311C204.394,160.94,202.436,162.706,202.279,164.825
		 M171.955,134.909c-0.005,2.369,1.779,4.18,4.143,4.209c2.371,0.029,4.207-1.736,4.259-4.092c0.052-2.375-1.691-4.234-4.043-4.311
		C173.857,130.637,171.959,132.463,171.955,134.909 M162.893,146.282c0.07,1.494,0.911,2.344,2.403,2.436
		c1.426,0.088,2.563-1.072,2.542-2.752c-0.149-1.209-0.903-2.104-2.41-2.188C164.001,143.7,162.825,144.854,162.893,146.282
		 M152.86,155.006c-0.014,1.594,1.402,3.102,3.012,3.203c1.652,0.109,3.279-1.375,3.357-3.059c0.078-1.66-1.429-3.262-3.112-3.309
		C154.447,151.797,152.875,153.325,152.86,155.006 M142.519,163.733c0.111,2.342,1.428,3.674,3.767,3.816
		c2.238,0.139,4.021-1.682,3.987-4.313c-0.233-1.898-1.415-3.301-3.779-3.432C144.256,159.682,142.413,161.493,142.519,163.733
		 M120.976,164.954c-0.062,2.783,2.103,5.02,4.873,5.031c2.698,0.014,4.871-2.088,4.931-4.771c0.062-2.781-2.102-5.018-4.873-5.031
		C123.208,160.168,121.036,162.27,120.976,164.954 M100.471,165.075c-0.005,2.889,2.305,5.25,5.187,5.305
		c2.97,0.057,5.4-2.32,5.405-5.287c0.004-2.889-2.305-5.25-5.186-5.305C102.905,159.733,100.476,162.108,100.471,165.075
		 M81.401,164.899c-0.104,2.396,1.772,4.396,4.169,4.443c2.321,0.049,4.242-1.756,4.342-4.072c0.103-2.398-1.773-4.398-4.17-4.445
		C83.422,160.778,81.501,162.581,81.401,164.899 M41.981,165c-0.048,1.969,1.55,3.574,3.519,3.537
		c1.896-0.037,3.397-1.576,3.388-3.471c-0.009-1.895-1.526-3.418-3.42-3.438C43.572,161.612,42.026,163.108,41.981,165
		 M20.496,164.995c-0.06,2.574,2.255,4.924,4.84,4.916c2.52-0.008,4.755-2.209,4.815-4.738c0.06-2.574-2.254-4.924-4.84-4.916
		C22.79,160.264,20.555,162.463,20.496,164.995 M2.387,165.096c0.008,1.482,1.358,2.82,2.838,2.813
		c1.483-0.008,2.821-1.357,2.813-2.838c-0.009-1.482-1.359-2.82-2.838-2.813C3.716,162.266,2.379,163.616,2.387,165.096
		 M0.542,144.977c0.003,2.611,2.117,4.697,4.725,4.666c2.53-0.031,4.562-2.045,4.615-4.576c0.055-2.604-2.018-4.738-4.625-4.764
		C2.65,140.276,0.539,142.368,0.542,144.977 M5.614,59.681c-2.602,0-4.88,2.301-4.847,4.898c0.031,2.535,2.207,4.734,4.747,4.798
		c2.597,0.064,4.916-2.184,4.948-4.798C10.495,61.982,8.216,59.681,5.614,59.681 M5.589,49.266c2.602,0.016,4.889-2.271,4.873-4.873
		c-0.017-2.607-2.327-4.871-4.923-4.823c-2.537,0.047-4.725,2.235-4.772,4.772C0.718,46.939,2.982,49.249,5.589,49.266
		 M5.677,79.792c-2.597-0.04-4.903,2.23-4.91,4.836c-0.008,2.521,2.149,4.758,4.685,4.859c2.577,0.104,4.937-2.125,5.01-4.734
		C10.535,82.157,8.292,79.833,5.677,79.792 M5.591,99.903c-2.608,0.016-4.872,2.326-4.824,4.922
		c0.046,2.537,2.233,4.727,4.771,4.773c2.595,0.051,4.907-2.215,4.924-4.82C10.479,102.176,8.192,99.887,5.591,99.903
		 M5.799,120.016c-2.572-0.117-4.946,2.105-5.032,4.711c-0.086,2.59,2.15,4.928,4.763,4.982c2.596,0.055,4.91-2.205,4.932-4.813
		C10.484,122.379,8.333,120.131,5.799,120.016 M3.471,9.571c0.078-1.083-0.623-1.675-1.672-1.879
		C0.746,7.806,0.034,8.356,0.002,9.436c-0.031,1.009,0.607,1.684,1.596,1.762C2.681,11.285,3.395,10.628,3.471,9.571 M10.462,24.285
		c-0.015-2.607-2.322-4.872-4.919-4.826c-2.539,0.045-4.727,2.231-4.776,4.77c-0.051,2.595,2.212,4.908,4.819,4.926
		C8.186,29.173,10.476,26.886,10.462,24.285 M29.017,4.357c0.084-1.848-1.295-3.369-3.13-3.453c-1.849-0.084-3.37,1.296-3.453,3.131
		c-0.084,1.848,1.295,3.369,3.13,3.453C27.413,7.571,28.934,6.192,29.017,4.357 M48.215,4.338c0.106-1.487-0.854-2.299-2.294-2.58
		c-1.447,0.157-2.425,0.912-2.469,2.395c-0.041,1.385,0.833,2.311,2.193,2.42C47.13,6.691,48.111,5.79,48.215,4.338 M44.776,38.585
		v-8.462c4.599-0.477,6.83-2.374,6.765-5.941c-0.053-2.936-2.378-5.389-5.284-5.572c-3.616-0.229-5.481,1.858-6.333,7.113
		c-1.284-0.301-2.567-0.601-3.938-0.923c-0.143-1.274-0.288-2.555-0.429-3.825c4.568-0.79,6.848-3.179,6.762-6.944
		c-0.074-3.201-2.563-5.959-5.675-6.287c-3.99-0.42-6.4,1.687-7.655,6.666h-7.094c-0.592-4.048-2.895-6.337-6.38-6.262
		c-3.061,0.066-5.657,2.471-5.932,5.495c-0.326,3.599,1.858,5.95,6.378,6.93c-0.17,1.993-0.34,3.973-0.519,6.066
		c-4.237,0.645-7.168,2.963-7.323,7.408c-0.169,4.855,2.948,7.302,7.381,8.138v4.461c-5.08,1.511-7.299,3.795-7.461,7.594
		c-0.163,3.804,2.031,6.202,7.502,8.142v4.417c-4.357,0.757-7.357,3.079-7.432,7.639c-0.079,4.76,3.016,7.148,7.405,7.959v4.463
		c-5.068,1.534-7.326,3.603-7.418,7.371c-0.122,4.98,2.956,7.428,7.452,8.307v4.35c-5.462,1.975-7.652,4.178-7.481,7.939
		c0.211,4.664,3.107,7.004,7.447,7.771v4.629c-5.287,1.344-7.468,3.438-7.648,7.26c-0.192,4.08,1.713,6.227,7.418,8.221v5.279
		c-4.818,1.387-7.005,3.688-6.846,7.262c0.143,3.252,2.494,6.041,5.833,6.438c1.373,0.164,2.955-0.182,4.235-0.754
		c2.539-1.139,3.373-3.604,3.739-6.031c1.964,0.109,3.676,0.205,5.341,0.297c1.716,5.291,4.229,7.578,8.037,7.396
		c3.511-0.168,6.538-2.596,7.042-6.043c0.221-1.51,0.036-3.244-0.513-4.664c-1.133-2.936-3.76-4.158-6.769-4.553
		c0.064-1.08,0.112-1.848,0.151-2.508c1.468-0.336,2.693-0.617,3.922-0.9c0.71,4.895,2.625,6.967,6.256,6.83
		c2.894-0.107,5.23-2.305,5.48-5.15c0.329-3.742-1.671-5.715-6.454-6.594v-8.318c4.564-0.6,6.744-2.203,6.737-5.477
		c-0.002-1.256-0.446-2.658-1.111-3.734c-1.315-2.131-3.609-2.484-5.587-2.371v-8.508c4.745-0.773,6.795-2.338,6.703-5.672
		c-0.035-1.252-0.534-2.637-1.221-3.699c-1.321-2.041-3.575-2.32-5.48-2.238v-8.561c4.26-0.322,6.691-2.109,6.689-5.389
		c-0.002-1.313-0.491-2.783-1.2-3.901c-1.303-2.053-3.561-2.36-5.489-2.255v-8.558c4.368-0.365,6.648-2.193,6.76-5.574
		c0.119-3.559-1.91-5.314-7.024-6.119c0.209-1.376,0.585-2.751,0.584-4.125c-0.002-1.421-0.369-2.841-0.577-4.262
		c4.745-0.442,6.993-2.3,7.019-5.782C51.568,40.959,49.504,39.231,44.776,38.585 M60.589,145.016
		c0.019,2.814,2.172,4.932,4.999,4.912c2.816-0.02,4.932-2.172,4.913-4.998c-0.019-2.816-2.171-4.932-4.998-4.912
		C62.686,140.036,60.57,142.19,60.589,145.016 M65.878,107.534c1.465,0.043,2.905-1.293,2.835-2.762
		c-0.076-1.609-1.019-2.58-2.6-2.785c-1.431-0.186-2.875,1.172-2.948,2.645C63.091,106.083,64.406,107.491,65.878,107.534
		 M65.911,79.872c-2.519,0.025-4.722,2.24-4.732,4.755c-0.009,2.508,2.184,4.737,4.705,4.782c2.575,0.043,4.892-2.285,4.832-4.855
		C70.655,82.034,68.413,79.846,65.911,79.872 M68.424,64.247c-0.149-1.211-0.903-2.106-2.41-2.189
		c-1.427-0.079-2.603,1.077-2.535,2.504c0.07,1.494,0.911,2.344,2.402,2.435C67.308,67.084,68.445,65.925,68.424,64.247
		 M79.133,54.549c0.046-1.613-1.325-3.099-2.955-3.204c-1.68-0.108-3.259,1.35-3.306,3.052c-0.045,1.612,1.326,3.099,2.956,3.204
		C77.507,57.709,79.087,56.251,79.133,54.549 M87.41,45.054c0.077-1.083-0.622-1.675-1.672-1.879
		c-1.052,0.114-1.764,0.664-1.797,1.744c-0.03,1.009,0.607,1.684,1.597,1.762C86.62,46.768,87.334,46.112,87.41,45.054
		 M110.572,44.359c-0.038-2.302-2.118-4.35-4.411-4.344c-2.294,0.005-4.367,2.061-4.395,4.361c-0.029,2.366,2.156,4.519,4.512,4.445
		C108.585,48.748,110.611,46.643,110.572,44.359 M130.749,44.427c0.006-2.415-2.043-4.473-4.459-4.478s-4.473,2.044-4.479,4.459
		c-0.005,2.416,2.044,4.473,4.46,4.478C128.687,48.892,130.744,46.843,130.749,44.427 M148.774,44.305
		c-0.062-1.368-0.966-2.265-2.346-2.269c-1.477-0.005-2.42,0.921-2.417,2.395c0.003,1.486,0.993,2.247,2.436,2.426
		C147.889,46.595,148.841,45.796,148.774,44.305 M160.475,54.452c-0.014-2.102-1.895-3.987-3.999-4.007
		c-2.095-0.019-4.006,1.841-4.057,3.948c-0.05,2.089,1.786,4.024,3.898,4.108C158.478,58.587,160.488,56.628,160.475,54.452
		 M153.544,74.635c0.027,1.643,1.306,2.878,2.954,2.852c1.643-0.025,2.878-1.306,2.852-2.953c-0.028-1.643-1.307-2.878-2.954-2.853
		C154.753,71.708,153.518,72.987,153.544,74.635 M156.411,91.715c-1.753,0.02-3.015,1.354-2.944,3.115
		c0.067,1.668,1.334,2.863,3.016,2.844c1.678-0.018,2.911-1.238,2.944-2.914C159.461,93,158.17,91.696,156.411,91.715
		 M162.995,113.352c-0.897-4.035-4.107-5.715-9.39-4.912c2.744-8.072-4.017-13.725-11.187-10.691
		c1.047-5.069-0.559-8.467-4.461-9.445c-4.033-1.012-6.976,1.29-8.414,6.484h-5.753c-1.38-5.08-3.764-7.377-7.555-7.381
		c-3.817-0.006-6.264,2.348-7.542,7.332c-1.019-0.072-2.055-0.144-3.083-0.215c-0.198-1.15-0.366-2.125-0.533-3.099
		c5.383-1.028,7.622-2.815,7.558-6.423c-0.025-1.449-0.508-3.071-1.289-4.289c-1.59-2.48-4.267-2.9-7.172-2.506
		c0.323-1.428,0.555-2.448,0.775-3.42c1.65-0.15,3.151-0.287,4.627-0.422c1.217,4.533,3.222,6.551,6.519,6.643
		c3.259,0.091,5.255-1.835,6.825-6.525h6.312c0.933,5.006,4.202,7.866,8.319,6.858c1.619-0.396,3.265-1.574,4.402-2.841
		c1.846-2.059,1.546-4.668,0.61-7.347c3.823,1.496,7.118,1.166,9.663-1.951c2.005-2.455,2.321-5.31,0.804-8.088
		c-2.349-4.303-6.148-4.784-10.523-3.316c1.523-4.931-0.13-8.65-4.244-9.912c-4.246-1.302-7.426,1.061-9.077,6.639h-5.37
		c-1.135-5.063-3.629-7.427-7.679-7.395c-3.938,0.03-6.443,2.461-7.489,7.412h-5.686c-1.371-5.179-4.146-7.381-8.3-6.559
		c-3.862,0.765-5.633,4.148-4.834,9.428c-3.34-1.229-6.487-1.148-9.18,1.371c-2.678,2.504-2.916,5.647-1.953,9.028
		c-5.337-0.619-8.676,1.201-9.56,5.062c-0.993,4.334,1.224,7.258,6.871,9.031v5.33c-5.507,1.854-7.915,4.58-7.021,8.414
		c0.372,1.596,1.31,3.246,2.443,4.439c1.894,2,4.504,2.063,7.252,1.432c-1.241,3.73-0.597,6.869,2.252,9.301
		c2.935,2.504,6.207,2.439,9.588,0.67c-1.225,5.123,0.349,8.564,4.188,9.377c3.963,0.838,6.841-1.494,7.754-6.201h6.67
		c0.937,4.461,3.14,6.914,6.611,6.963c1.395,0.021,2.923-0.434,4.175-1.088c2.306-1.203,3.024-3.557,3.388-5.953
		c1.156,0.16,2.137,0.295,3.19,0.441c0.178,1.066,0.35,2.082,0.521,3.102c-5.345,0.697-7.737,2.883-7.679,6.871
		c0.057,3.932,2.611,6.07,7.94,6.525c-0.251,1.092-0.498,2.16-0.726,3.158c-1.568,0.205-2.94,0.385-4.301,0.563
		c-0.966-4.396-2.764-6.451-5.993-6.451c-1.334,0-3.051,0.25-3.911,1.088c-1.432,1.395-2.314,3.354-3.49,5.172h-6.042
		c-0.866-4.514-3.18-6.902-6.766-7.043c-3.899-0.154-6.21,2.021-7.51,7.068c-2.232-0.002-4.463-0.002-6.721-0.002
		c-0.763-4.09-3.073-6.365-6.429-6.232c-2.955,0.113-5.465,2.443-5.831,5.412c-0.425,3.428,1.715,5.756,6.204,6.943v7.576
		c-4.172,0.691-6.415,3-6.261,6.559c0.132,3.049,2.609,5.588,5.646,5.787c3.601,0.236,5.917-1.965,6.758-6.402
		c1.91,0.176,3.816,0.352,5.835,0.537c1.068,4.918,3.65,7.436,7.651,7.559c4.312,0.131,6.777-2.086,8.401-7.621h3.675
		c1.165,5.258,3.924,7.916,8.186,7.971c4.466,0.059,7.166-2.438,8.572-7.977c1.537-0.088,3.096-0.174,4.648-0.262
		c0.753,4.777,3.669,7.527,7.762,6.91c1.59-0.238,3.282-1.207,4.483-2.32c2.024-1.875,2.006-4.498,1.394-7.283
		c3.536,1.326,6.574,0.854,9.112-1.65c2.594-2.561,2.828-5.705,1.736-9.063c5.855,0.279,8.703-1.477,9.43-5.672
		c0.641-3.703-1.583-6.307-6.809-8.033v-5.959C161.744,120.194,163.93,117.559,162.995,113.352 M146.134,87.883
		c1.752,0.154,3.415-1.309,3.51-3.086c0.09-1.68-1.293-3.251-2.995-3.4c-1.752-0.154-3.415,1.307-3.51,3.086
		C143.049,86.163,144.432,87.733,146.134,87.883 M126.229,89.924c2.848,0.027,5.255-2.287,5.336-5.133
		c0.084-2.926-2.305-5.408-5.233-5.436c-2.848-0.029-5.254,2.286-5.336,5.133C120.911,87.413,123.3,89.897,126.229,89.924
		 M76.012,111.553c-1.694-0.006-3.199,1.445-3.262,3.145c-0.065,1.766,1.469,3.355,3.244,3.361c1.694,0.006,3.199-1.445,3.262-3.145
		C79.32,113.149,77.787,111.559,76.012,111.553 M86.1,120.061c-2.563-0.031-4.884,2.299-4.844,4.859
		c0.041,2.51,2.254,4.715,4.761,4.742c2.563,0.031,4.884-2.299,4.843-4.859C90.82,122.293,88.606,120.088,86.1,120.061
		 M101.738,124.868c0.006,2.102,1.88,3.994,3.985,4.021c2.094,0.027,4.011-1.822,4.072-3.934c0.062-2.166-1.913-4.16-4.084-4.121
		C103.605,120.87,101.735,122.77,101.738,124.868 M165.797,64.874c0.078-1.084-0.622-1.675-1.671-1.879
		c-1.054,0.114-1.766,0.664-1.798,1.744c-0.03,1.009,0.607,1.683,1.597,1.762C165.007,66.588,165.721,65.931,165.797,64.874
		 M167.832,102.09c0.078-1.082-0.622-1.674-1.671-1.879c-1.053,0.115-1.766,0.664-1.798,1.744c-0.03,1.01,0.607,1.686,1.597,1.764
		C167.042,103.805,167.756,103.149,167.832,102.09 M170.267,124.766c-0.044-2.379-1.862-4.115-4.263-4.07
		c-2.379,0.043-4.115,1.861-4.07,4.262c0.044,2.379,1.861,4.115,4.262,4.07C168.576,128.985,170.311,127.167,170.267,124.766
		 M180.642,74.641c0.031-2.246-1.782-4.11-4.028-4.141c-2.245-0.031-4.109,1.782-4.14,4.028c-0.031,2.246,1.781,4.109,4.027,4.141
		C178.747,78.7,180.611,76.886,180.642,74.641 M209.977,44.327c-0.053-1.699-1.549-3.157-3.244-3.162
		c-1.774-0.005-3.316,1.575-3.261,3.344c0.052,1.698,1.548,3.156,3.244,3.161C208.489,47.676,210.032,46.095,209.977,44.327
		 M224.014,53.93c-0.393-3.931-3.341-6.789-7.313-6.863c-4.296-0.079-7.564,3.081-7.704,7.449c-0.001,0.046,0.009,0.087,0.008,0.132
		c-2.562,0.346-4.897,0.66-7.207,0.972c-0.27-4.037-1.857-6.099-4.954-6.206c-2.697-0.093-5.514,2.363-5.577,5.054
		c-0.029,1.186,0.283,2.471,0.978,3.212c2.344,2.499,3.805,2.501,5.693,2.494c-0.308,1.069-0.748,2.592-1.174,4.07
		c-1.572,0.339-3.12,0.672-4.667,1.006c-0.606-4.143-2.429-6.094-5.62-6.026c-2.576,0.054-4.157,0.794-5.267,3.771
		c-0.42,1.123-0.266,3.343,0.136,4.313c0.788,1.897,2.637,3.191,5.777,3.287c-0.232,1.625-0.53,3.72-0.829,5.825
		c-5.088,1.271-7.682,3.96-7.764,8.072c-0.083,4.147,2.356,6.779,7.891,8.482v2.262c-1.514,0.407-2.903,0.781-4.315,1.162
		c0.337-4.283-1.768-7.158-5.312-7.345c-2.986-0.157-5.908,2.388-5.8,5.427c0.049,1.36,0.689,2.885,1.519,3.992
		c1.386,1.844,3.564,2.076,5.638,1.754c-0.294,1.611-0.781,3.111-0.781,4.613c0.001,1.467,0.5,2.934,0.782,4.412
		c-4.206-0.361-7.304,1.838-7.17,5.387c0.053,1.408,0.76,3.027,1.683,4.113c1.836,2.162,4.386,2.008,7.064,0.975
		c-3.302,6.904-1.38,10.842,6.443,13.57c0,0.943-0.085,1.949,0.024,2.936c0.106,0.965,0.41,1.908,0.626,2.863
		c-4.193,0.729-6.297,2.73-6.286,5.895c0.01,2.824,2.201,5.402,5.048,5.568c1.195,0.07,2.659,0.197,3.856-0.641
		c1.969-0.951,2.512-2.99,2.871-5.383c0.769,0.174,2.474,0.434,3.711,0.717c0.294,1.355,0.572,2.635,0.849,3.91
		c-4.331,0.953-6.432,3.053-6.221,6.156c0.187,2.764,2.384,5.023,5.165,5.314c3.122,0.326,5.264-1.758,6.303-6.063
		c1.958,0.227,3.902,0.453,5.846,0.676c0.357,2.445,1.61,4.496,3.445,5.826c1.129,1.029,2.505,1.596,4.173,1.619
		c0.121,0.002,0.246-0.016,0.369-0.02c0.041,0.002,0.077,0.018,0.118,0.02c5.175,0.252,9.145-3.592,9.161-8.873
		c0.001-0.396-0.029-0.777-0.079-1.152c0.117-0.463,0.272-0.91,0.468-1.34c2.396-0.668,4.073-2.871,4.082-5.725
		c0.006-2.17-0.948-3.982-2.463-5.027c0.375-0.689,0.606-1.492,0.609-2.387c0.007-2.561-1.702-4.477-4.06-4.627
		c-0.327-1.129-0.771-2.098-1.313-2.928c0.17,0.033,0.339,0.07,0.517,0.076c2.013,0.088,3.756-1.51,3.842-3.52
		c0.087-2.016-1.511-3.758-3.521-3.844c-2.014-0.088-3.757,1.512-3.843,3.521c-0.018,0.424,0.053,0.832,0.172,1.219
		c-1.356-0.623-2.986-0.813-4.879-0.545c0.163-2.68-0.724-5.146-1.963-7.029c-1.703-2.777-5.762-3.984-5.911-3.828
		c-0.08-1.52-0.159-3.037-0.252-4.807c1.212-0.102,2.387-0.373,3.413-0.891c-0.032,0.205-0.066,0.408-0.07,0.623
		c-0.04,2.451,1.82,4.316,4.271,4.281c2.362-0.033,4.141-1.852,4.131-4.221c-0.01-2.369-1.803-4.166-4.171-4.182
		c-0.44-0.002-0.852,0.076-1.247,0.188c0.449-1.156,0.687-2.465,0.654-3.676c-0.021-0.779-0.179-1.482-0.439-2.129
		c0.254,0.055,0.512,0.092,0.776,0.098c2.296,0.039,4.387-1.996,4.427-4.309c0.039-2.297-1.997-4.389-4.31-4.428
		c-2.296-0.039-4.387,1.996-4.427,4.309c-0.005,0.344,0.048,0.678,0.129,1.006c-0.876-0.406-1.885-0.729-3.039-0.957v-3.875
		c2.399-1.575,4.169-1.741,5.844-3.389c1.834-1.803,2.594-5.271,2.093-7.336c2.236-0.217,3.818-0.617,5.189-1.305
		c3.622-1.023,6.132-4.222,6.145-8.311c0.002-0.649-0.065-1.272-0.184-1.872c1.958-1.057,3.244-3.087,3.251-5.587
		c0.008-2.357-1.114-4.314-2.885-5.428c0.343-0.888,0.415-1.824,0.237-2.712c-0.062-0.204-0.112-0.41-0.161-0.618
		c-0.37-1.085-1.106-2.049-2.17-2.664l0.064-0.122C224.113,54.215,224.06,54.083,224.014,53.93 M231.387,44.45
		c0.015-2.593-1.933-4.569-4.519-4.584c-2.593-0.015-4.57,1.934-4.584,4.519c-0.015,2.593,1.933,4.57,4.519,4.585
		C229.396,48.984,231.372,47.036,231.387,44.45 M266.835,77.14c-0.467-2.761-0.912-5.388-1.341-7.926
		c3.467,0.486,6.053-1.139,6.393-4.243c0.286-2.621-1.963-5.319-4.65-5.221c-1.173,0.042-2.5,0.596-3.437,1.328
		c-1.716,1.341-1.828,3.359-1.375,5.267c-2.08-0.585-4.049-1.138-5.559-1.563c-0.971-2.278-1.823-4.278-2.676-6.279
		c0.571,0.165,1.135,0.36,1.714,0.489c2.187,0.487,4.229-0.439,5.23-2.347c0.951-1.816,0.593-4.096-0.868-5.521
		c-1.455-1.418-3.76-1.721-5.543-0.727c-1.875,1.046-2.754,3.121-2.217,5.293c0.142,0.576,0.351,1.136,0.53,1.702
		c-2.602-1.882-5.459-2.636-8.599-1.873c0.059-0.4,0.121-0.801,0.122-1.225c0.013-4.4-3.196-7.69-7.58-7.769
		c-4.405-0.08-7.758,3.081-7.901,7.449c-0.052,1.569,0.325,3.003,1.008,4.221c-0.599,0.506-0.982,1.252-1.011,2.137
		c-0.054,1.641,1.084,2.912,2.685,3.034c0.344,1.21,0.402,2.488,0.205,3.755c-2.42,1.428-4.01,3.996-4.113,7.134
		c-0.075,2.269,0.647,4.28,1.892,5.841l-0.79,0.941c-0.729-0.524-1.6-0.846-2.52-0.848c-2.392,0-4.484,2.112-4.454,4.5
		c0.031,2.403,2.161,4.465,4.55,4.403c2.394-0.062,4.445-2.229,4.353-4.599c-0.035-0.903-0.371-1.75-0.898-2.453l0.758-0.903
		c1.405,1.233,3.219,2.03,5.318,2.13c0.779,0.037,1.527-0.025,2.242-0.162c-0.119,2.584,0.367,4.713,1.454,6.379
		c-0.597-0.25-1.26-0.389-1.967-0.392c-2.828-0.017-4.975,2.103-4.991,4.921c-0.015,2.827,2.103,4.975,4.922,4.99
		c2.828,0.016,4.975-2.104,4.99-4.922c0.005-0.82-0.188-1.571-0.507-2.241c1.233,0.761,2.729,1.315,4.575,1.594v3.581
		c-0.594,0.15-1.23,0.295-1.858,0.471c-3.105,0.869-5.308,3.627-5.532,6.912c-0.201,2.947,1.681,5.973,4.497,7.23
		c1.507,0.676,2.465,1.199,2.465,1.199s0.14,1.873-0.018,3.428c-1.77,0.668-3.164,1.26-4.258,1.879
		c0.362-0.637,0.601-1.342,0.633-2.088c0.108-2.545-2.165-4.918-4.746-4.957c-2.482-0.039-4.751,2.133-4.858,4.645
		c-0.109,2.545,2.164,4.92,4.746,4.959c0.568,0.008,1.122-0.111,1.645-0.313c-1.019,1.549-1.219,3.611-1.115,6.951
		c-0.781-0.066-1.5-0.049-2.191,0.006c-0.064-0.002-0.123-0.02-0.188-0.021c-4.167-0.078-7.339,3.082-7.475,7.449
		c-0.089,2.867,1.138,5.295,3.129,6.715c0.912,1.9,1.122,4.086,0.539,6.162c-2.387,1.252-3.988,3.707-4.085,6.768
		c-0.141,4.422,2.813,7.852,6.979,8.23c0.039,0.008,0.078,0.012,0.118,0.018c0.074,0.006,0.143,0.029,0.22,0.033
		c0.026,0,0.05-0.006,0.076-0.004c0.192,0.02,0.38,0.047,0.578,0.055c4.305,0.164,6.933-2.191,8.428-7.674
		c1.083,0,2.225,0.104,3.338-0.029c1.101-0.133,2.175-0.504,3.267-0.771c0.548,4.174,2.381,6.137,5.615,6.076
		c2.676-0.049,4.909-2.074,5.168-4.686c0.334-3.365-1.545-5.293-6.043-6.184c0.343-1.414,0.687-2.826,1.027-4.229
		c1.431-0.338,2.846-0.674,4.262-1.01c0.628,4.217,2.36,6.098,5.574,6.07c2.686-0.023,5.088-2.006,5.182-4.605
		c0.045-1.26-0.213-3.176-0.978-4.135c-1.296-1.305-2.633-2.059-4.786-2.201c0.723-2.307,0.765-4.449,0.815-6.689
		c4.798-1.221,7.204-3.664,7.38-7.504c0.18-3.938-2.063-6.414-7.479-8.268v-3.906c4.953-0.766,7.946-3.297,8.196-7.307
		c0.103-1.645-0.361-3.473-1.066-4.986c-1.289-2.766-3.984-3.75-6.854-4.243v-4.319c4.712-0.84,7.267-3.492,7.275-7.482
		C274.409,80.45,272.016,78.159,266.835,77.14 M280.459,74.67c0.041-1.889-1.3-3.344-3.161-3.431
		c-1.969-0.092-3.49,1.311-3.532,3.259c-0.04,1.889,1.3,3.344,3.161,3.431C278.896,78.022,280.417,76.618,280.459,74.67
		 M282.174,94.625c-0.04-2.834-2.352-5.059-5.182-4.991c-2.755,0.065-4.924,2.274-4.94,5.03c-0.018,2.834,2.248,5.104,5.081,5.092
		C279.968,99.745,282.213,97.458,282.174,94.625 M287.064,140.075c-2.702-0.141-5.004,1.854-5.192,4.5
		c-0.198,2.783,1.858,5.152,4.596,5.295c2.784,0.146,5.104-1.951,5.199-4.699C291.76,142.463,289.727,140.213,287.064,140.075
		 M290.959,123.997c0.078-1.082-0.622-1.674-1.671-1.879c-1.053,0.115-1.766,0.664-1.799,1.744c-0.029,1.01,0.608,1.684,1.598,1.762
		C290.169,125.711,290.883,125.055,290.959,123.997 M296.854,110.254c-2.594-0.014-4.571,1.936-4.585,4.52
		c-0.015,2.594,1.933,4.568,4.519,4.584c2.594,0.016,4.57-1.934,4.584-4.52C301.388,112.245,299.44,110.27,296.854,110.254
		 M300.29,93.522c0.078-1.084-0.621-1.675-1.672-1.879c-1.051,0.114-1.764,0.664-1.797,1.744c-0.031,1.01,0.607,1.684,1.598,1.762
		C299.501,95.237,300.214,94.581,300.29,93.522 M309.011,64.256c0.078-1.084-0.621-1.675-1.672-1.88
		c-1.055,0.114-1.766,0.664-1.799,1.744c-0.029,1.009,0.607,1.684,1.598,1.763C308.22,65.969,308.935,65.313,309.011,64.256
		 M311.729,84.75c0.066-2.305-1.857-4.395-4.191-4.555c-2.359-0.162-4.576,1.83-4.709,4.233c-0.131,2.367,1.889,4.562,4.289,4.662
		C309.487,89.192,311.659,87.145,311.729,84.75 M321.403,54.419c-0.033-2.221-1.961-4.076-4.174-4.015
		c-2.143,0.059-3.939,1.881-3.965,4.023c-0.027,2.215,1.855,4.118,4.074,4.115C319.556,58.54,321.435,56.633,321.403,54.419
		 M331.071,24.314c0.004-2.02-1.656-3.686-3.674-3.689c-2.021-0.004-3.688,1.655-3.691,3.675s1.656,3.686,3.676,3.689
		C329.403,27.993,331.069,26.334,331.071,24.314 M344.397,12.825c-0.752,0-1.451,0.225-2.041,0.6
		c-0.619-2.72-2.336-4.261-4.961-4.235c-2.621,0.027-4.873,1.976-4.914,4.589c-0.02,1.188,0.26,2.773,1.039,3.492
		c1.27,1.175,3.059,1.787,4.557,2.597c-0.006,0.037-0.01,0.079-0.016,0.116c-1.334,1.02-2.207,2.613-2.207,4.424
		c0,0.789,0.18,1.528,0.477,2.204c-6.184,1.841-7.736,5.277-5.564,12.299c-5.418-1.066-8.688,0.308-9.313,4.21
		c-0.223,1.409,0.135,3.091,0.742,4.412c1.033,2.252,3.264,2.95,5.521,3.148c-0.193,1.919-0.375,3.702-0.557,5.485
		c-5.969,1.093-9.543,5.529-7.09,12.445c-4.66-0.824-7.832,0.523-8.721,4.033c-0.354,1.392-0.221,3.085,0.23,4.464
		c0.914,2.772,3.475,3.627,5.998,4.072c-0.17,1.782-0.314,3.299-0.467,4.887c-2.941,0.396-5.408,1.577-7.01,4.157
		c-1.582,2.546-1.596,5.259-0.602,8.054c-5.053-0.186-8,1.445-8.576,4.98c-0.232,1.43,0.035,3.098,0.57,4.461
		c0.959,2.432,3.24,3.352,5.617,3.762c-0.166,1.639-0.311,3.084-0.471,4.664c-2.988,0.27-5.404,1.512-7.066,4.045
		c-1.654,2.525-1.502,5.277-0.875,8.084c-4.813-0.209-7.798,1.588-8.354,5.256c-0.217,1.432,0.016,3.105,0.575,4.447
		c1.071,2.574,3.495,3.506,5.944,3.805v5.74c-5.035,0.896-7.605,3.779-7.36,8.09c0.198,3.477,3.127,6.467,6.589,6.725
		c4.35,0.326,7.205-2.174,8.264-7.301c1.703,0,3.422,0,5.143,0.002c2.129,5.529,4.297,7.436,8.027,7.059
		c3.357-0.34,6.006-2.67,6.324-5.971c0.137-1.453-0.154-3.09-0.732-4.436c-1.129-2.631-3.639-3.529-6.309-3.957
		c0.117-0.988,0.209-1.766,0.305-2.564c1.15-0.17,2.174-0.322,3.178-0.471c1.27,4.742,3.684,6.982,7.098,6.703
		c3.195-0.262,5.752-2.811,6.021-6.01c0.291-3.42-1.973-5.865-6.764-7.117c0.211-1.133,0.404-2.164,0.596-3.199
		c0.943-0.105,11.654,0.568,13.008-0.145c2.225-1.178,1.688,0.314,1.984-1.986l0.85-1.133l5.279-2.588
		c0.477-1.033,0.76-2.172,0.76-3.383c0-1.191-0.291-2.305-0.76-3.32v-0.496c1.646-1.643,2.672-3.9,2.672-6.408
		c0-1.771-0.514-3.42-1.393-4.818h2.377c2.373-0.553,4.117-2.666,4.094-5.221c-0.025-2.965-2.443-5.309-5.422-5.26
		c-2.885,0.045-5.199,2.391-5.213,5.283c-0.002,0.641,0.119,1.242,0.32,1.805c-1.16-0.543-6.42-1.143-7.783-1.146
		c-0.139-0.025-0.264-0.064-0.404-0.088v-3.6c2.516-0.414,5.035-1.301,6.295-3.807c0.721-1.43,1.189-3.17,1.156-4.758
		c-0.08-3.686-2.662-6.037-7.473-7.241v-1.839c1.145-0.243,2.57-0.646,3.918-0.934c0.326,2.396,0.754,4.826,3.082,5.886
		c1.16,0.528,2.596,0.84,3.846,0.7c2.92-0.323,5.066-2.932,5.135-5.807c0.076-3.088-1.844-5.187-5.621-6.207h-2.408v-0.813
		c1.416-1.601,2.283-3.698,2.283-6.003c0-0.362-0.027-0.717-0.068-1.067c-0.014-0.106-0.031-0.208-0.047-0.313
		c-0.039-0.249-0.086-0.496-0.143-0.739c-0.027-0.107-0.053-0.213-0.082-0.318c-0.072-0.256-0.156-0.505-0.248-0.751
		c-0.027-0.075-0.051-0.151-0.082-0.225c-0.131-0.324-0.277-0.641-0.445-0.945c0.949-1.005,1.543-2.353,1.543-3.845
		c0-2.033-1.094-3.796-2.711-4.779v-4.66c1.344-1.471,2.186-3.377,2.186-5.489c0-2.118-0.832-4.038-2.186-5.506v-2.317
		c1.4-1.335,2.283-3.201,2.283-5.29c0-2.089-0.885-3.954-2.283-5.29v-2.001c0.939-0.996,1.525-2.326,1.525-3.805
		c0-1.473-0.594-2.79-1.525-3.79v-0.355c1.543-0.49,2.672-1.913,2.672-3.619C348.216,14.535,346.505,12.825,344.397,12.825
		 M350.792,4.234c0.021-1.852-1.402-3.309-3.254-3.33c-1.852-0.019-3.309,1.404-3.33,3.254c-0.02,1.853,1.404,3.31,3.254,3.33
		C349.315,7.508,350.772,6.084,350.792,4.234 M369.997,4.228c0.027-1.387-0.846-2.309-2.207-2.41
		c-1.482-0.11-2.463,0.793-2.557,2.248c-0.1,1.488,0.865,2.295,2.381,2.583C368.954,6.438,369.968,5.728,369.997,4.228
		 M380.854,14.194c0.078-1.084-0.621-1.675-1.67-1.879c-1.055,0.113-1.766,0.663-1.799,1.743c-0.029,1.01,0.605,1.684,1.598,1.763
		C380.065,15.907,380.778,15.251,380.854,14.194 M390.261,44.535c-0.102-1.569-0.852-2.56-2.443-2.61
		c-1.574-0.049-2.531,0.82-2.586,2.398c-0.057,1.572,0.816,2.523,2.396,2.588C389.216,46.976,390.046,46.052,390.261,44.535
		 M400.714,74.495c-0.045-1.66-1.305-2.865-2.977-2.846c-1.664,0.019-2.889,1.258-2.896,2.924c-0.004,1.746,1.324,3.02,3.076,2.947
		C399.569,77.452,400.759,76.165,400.714,74.495 M411.044,104.663c-0.055-1.879-1.783-3.549-3.648-3.523
		c-1.879,0.023-3.57,1.725-3.576,3.6c-0.008,1.871,1.668,3.586,3.549,3.625C409.315,108.405,411.101,106.608,411.044,104.663
		 M413.269,123.606c-0.469-1.473-0.83-2.453-2.223-3.6c-2.111-1.623-5.143-1.252-7.57,0.006c3.721-6.688,0.408-12.082-5.848-13.154
		c-0.23-2.107-0.459-4.201-0.689-6.301c4.379-0.627,6.498-2.484,6.537-5.79c0.031-2.848-2.1-5.485-4.914-5.672
		c-1.258-0.083-2.689,0.261-3.814,0.847c-2.129,1.108-2.684,3.283-2.826,5.551c-1.443-0.387-2.723-0.73-4.082-1.096
		c-0.045-0.787-0.086-1.557-0.127-2.306c4.51-0.787,7.24-3.271,7.236-6.927c-0.004-1.582-0.525-3.324-1.314-4.707
		c-1.354-2.37-3.848-3.102-6.08-3.243c0.189-2.629-0.219-4.349-1.295-6.98c4.039-0.14,6.748-2.237,6.84-5.512
		c0.084-2.976-2.033-5.509-4.926-5.486c-1.311,0.01-3.045,0.358-3.82,1.233c-1.219,1.373-1.922,3.065-2.162,5.422
		c-0.938-0.245-2.932-0.891-4.395-1.273c-0.063-1.015-0.121-1.93-0.178-2.816c5.17-1.5,7.436-3.853,7.039-7.67
		c-0.148-1.45-0.803-2.982-1.635-4.196c-1.479-2.153-3.916-2.576-6.17-2.625c0-1.484,0.158-2.829-0.043-4.117
		c-0.207-1.324-0.764-2.595-1.178-3.922c4.084,0.632,6.83-1.101,7.203-4.474c0.303-2.737-2.008-5.555-4.871-5.544
		c-1.232,0.005-2.646,0.559-3.654,1.301c-1.955,1.439-2.07,3.652-1.557,5.844c-1.74-0.551-3.318-1.05-4.953-1.567
		c-0.117-1.131-0.238-2.293-0.357-3.441c4.754-0.95,7.242-3.603,7.059-7.424c-0.162-3.375-2.887-6.219-6.258-6.535
		c-3.889-0.365-6.578,2.066-7.771,7.094c-0.895-0.144-1.791-0.289-2.721-0.439c-0.16-1.057-0.305-2.029-0.451-2.992
		c5.02-1.265,7.012-3.415,6.816-7.285c-0.148-2.961-2.383-5.7-5.27-5.979c-1.457-0.14-3.104,0.113-4.445,0.693
		c-2.389,1.03-3.248,3.266-3.514,5.297v5.664c-1.088,0.727-1.809,1.966-1.809,3.374c0,1.193,0.527,2.255,1.346,2.998
		c-1.568,1.23-2.598,3.122-2.598,5.272c0,2.353,1.229,4.394,3.061,5.589v1.519c-1.594,1.226-2.633,3.135-2.633,5.302
		s1.039,4.075,2.633,5.3v0.829c-1.861,1.487-3.061,3.742-3.061,6.281c0,2.537,1.199,4.787,3.061,6.272v2.499
		c-1.111,1.155-1.809,2.705-1.809,4.432c0,1.732,0.695,3.297,1.809,4.459v2.881c1.473,4.348,4.088,5.799,8.809,5.098
		c-0.545,2.704-0.609,5.322,1.02,7.684c0.182,0.264,0.375,0.506,0.574,0.738l-1.051,1.251c-0.768-0.616-1.715-1.007-2.715-0.998
		c-2.303,0.021-4.354,2.054-4.398,4.361c-0.047,2.368,2.088,4.521,4.461,4.499c2.305-0.02,4.355-2.055,4.4-4.361
		c0.016-0.88-0.27-1.73-0.756-2.449l1.09-1.299c1.438,1.184,3.199,1.818,5.209,2.047v4.189c-6.43,2.207-4,4.98-2.547,11.16
		c-2.584-0.973-5.082-1.275-7.539,0.111c-0.811,0.455-1.465,1.008-1.998,1.639c-1.479,1.469-2.395,3.502-2.395,5.75
		c0,1.119,0.248,2.172,0.66,3.139v2.111c-1.639,1.482-2.674,3.615-2.674,5.996c0,2.195,0.881,4.176,2.293,5.637
		c-0.164,0.621-0.279,1.264-0.279,1.938c0,4.182,3.191,6.223,6.76,5.865c2.834-0.283,4.027-2.918,4.318-5.195
		c0.066-0.203,4.109-0.092,4.174-0.307c1.678,0.092-0.637-0.107,1.1-0.014c0.828,5.285,4.043,7.752,9.482,7.629
		c-0.441,3.309,0.107,6.176,2.467,8.471c2.414,2.35,5.393,2.654,8.551,2.174c-0.377,5.309,2.635,9.041,7.25,9.24
		c4.779,0.207,7.563-3.289,7.732-9.705c6.223,0.254,9.678-1.768,10.404-6.525c0.254-1.664-0.18-3.615-0.854-5.201
		c-1.229-2.889-3.99-3.922-6.766-4.434c-0.197-1.986-0.379-3.77-0.559-5.561C412.462,130.297,414.017,127.424,413.269,123.606
		 M421.481,134.848c-0.045-2.107-1.977-3.973-4.066-3.926c-2.105,0.045-3.971,1.977-3.924,4.064
		c0.045,2.107,1.977,3.971,4.066,3.926C419.663,138.866,421.528,136.936,421.481,134.848 M423.161,155.065
		c0.021-3.059-2.527-5.662-5.59-5.711c-3.133-0.053-5.799,2.605-5.76,5.74c0.039,3.061,2.633,5.617,5.691,5.609
		C420.562,160.694,423.142,158.124,423.161,155.065 M425.05,145.01c0.021,1.578,0.953,2.471,2.529,2.455
		c1.596-0.014,2.365-0.984,2.502-2.537c-0.18-1.535-0.982-2.48-2.576-2.449C425.925,142.508,425.028,143.434,425.05,145.01
		 M430.563,24.252c-0.084-1.563-0.963-2.457-2.525-2.563c-1.502-0.102-2.699,1.071-2.723,2.574
		c-0.025,1.505,1.129,2.676,2.633,2.673C429.452,26.933,430.644,25.754,430.563,24.252 M433.466,1.879
		c0.076-1.084-0.623-1.675-1.672-1.879c-1.055,0.113-1.766,0.663-1.799,1.743c-0.029,1.01,0.607,1.684,1.598,1.763
		C432.675,3.592,433.39,2.936,433.466,1.879 M452.14,4.186c-0.006-2.246-1.85-4.08-4.096-4.074
		c-2.244,0.005-4.078,1.849-4.072,4.095c0.006,2.245,1.848,4.079,4.094,4.073C450.312,8.275,452.146,6.431,452.14,4.186
		 M465.116,14.036c-0.084-3.37-2.566-6.242-5.803-6.709c-4.209-0.607-6.531,1.291-8.467,6.763c-2.398,0.187-4.695,0.367-7.049,0.55
		c-1.629-4.662-3.227-6.173-6.32-5.843c-2.619,0.279-4.678,2.174-4.855,4.8c-0.076,1.137,0.041,2.688,0.74,3.39
		c1.416,1.428,3.285,2.406,5.15,3.696c-1.043,2.581-0.811,5.629,0.572,8.622c-4.109,0.575-6.125,2.421-5.945,5.324
		c0.154,2.478,2.275,4.534,4.746,4.599c2.855,0.075,4.668-1.958,5.082-5.387c3.037,0.204,5.9,0.396,8.84,0.593
		c0.799,4.198,3.002,6.276,6.715,6.09c3.002-0.152,5.463-2.495,5.729-5.455c0.34-3.787-1.574-5.908-6.496-7.153
		c0.145-1.044,0.348-2.091,0.418-3.146c0.072-1.104,0.016-2.217,0.016-3.325C462.976,20.367,465.214,17.973,465.116,14.036
		 M448.06,41.143c-1.73-0.001-3.197,1.396-3.279,3.122c-0.086,1.801,1.367,3.369,3.172,3.427c1.807,0.058,3.348-1.413,3.377-3.221
		C451.36,42.662,449.868,41.146,448.06,41.143 M471.44,4.355c0.088-1.8-1.359-3.372-3.164-3.433
		c-1.727-0.059-3.238,1.29-3.377,3.015c-0.146,1.799,1.252,3.412,3.057,3.53C469.755,7.584,471.353,6.158,471.44,4.355
		 M474.665,24.456c0.074-3.585-2.781-6.575-6.35-6.649c-3.582-0.073-6.576,2.785-6.65,6.351c-0.072,3.585,2.783,6.576,6.354,6.649
		C471.603,30.88,474.593,28.024,474.665,24.456 M468.202,41.8c-1.559,0.032-2.492,0.87-2.648,2.433
		c-0.15,1.497,0.982,2.74,2.477,2.813c1.504,0.074,2.717-1.043,2.764-2.542C470.841,42.999,469.702,41.769,468.202,41.8
		 M474.665,84.815c0.088-3.58-2.004-5.746-6.6-6.906v-6.699c4.455-0.9,6.74-3.309,6.596-6.961c-0.121-3.095-2.531-5.754-5.605-6.18
		c-3.721-0.515-6.131,1.581-7.727,6.774c-1.02-0.191-2.049-0.383-3.029-0.567c-0.199-1.238-0.379-2.335-0.555-3.425
		c4.533-0.829,6.635-2.993,6.535-6.603c-0.084-3.023-2.354-5.557-5.285-5.898c-3.801-0.441-5.947,1.438-7.334,6.392
		c-1.467-0.113-2.936-0.396-4.377-0.289c-1.432,0.106-2.834,0.604-4.248,0.929c-0.561-3.875-2.262-5.812-5.094-5.774
		c-2.391,0.033-4.617,1.939-4.73,4.351c-0.049,1.064,0.172,2.526,0.863,3.156c1.33,1.212,3.084,1.96,4.434,2.764
		c-0.195,2.536-0.41,5.337-0.637,8.254c-3.201,0.47-5.801,2.121-6.115,5.829c-0.385,4.564,2.635,6.469,6.348,7.211v7.038
		c-3.436,0.503-6.02,2.155-6.35,5.864c-0.387,4.332,2.426,6.314,5.982,7.193v7.18c-4.146,0.859-6.252,2.703-6.242,5.936
		c0.006,1.334,0.824,3.57,1.664,4.428c1.398,1.424,2.275,1.914,4.58,2.918v6.879c-4.035,0.654-6.18,2.684-6.307,5.992
		c-0.141,3.615,1.734,5.57,6.426,6.734v7.869c-3.805,0.52-5.953,2.547-5.965,5.797c-0.012,2.867,2.131,5.504,4.934,5.639
		c1.322,0.063,3.063-0.172,3.924-0.99c1.391-1.322,2.211-3.24,3.324-4.988c1.611,0.172,3.719,0.396,5.846,0.623
		c2.225,6.254,6.004,8.637,10.672,6.691c4.299-1.791,5.707-6.285,3.393-11.332c5.006,1.758,8.77,0.332,10.061-3.668
		c1.338-4.143-1.033-7.373-6.375-8.803v-6.547c4.512-0.98,6.615-3.086,6.648-6.678c0.035-3.68-2.018-5.783-6.65-6.861v-6.547
		c4.451-1.117,6.434-2.963,6.635-6.238c0.227-3.723-1.426-5.652-6.234-7.385v-6.569C472.413,90.376,474.583,88.241,474.665,84.815
		 M480.851,14.321c0.039-1.505-1.107-2.727-2.609-2.687c-1.561,0.041-2.486,0.889-2.635,2.449c-0.143,1.498,1.002,2.733,2.496,2.797
		C479.608,16.945,480.813,15.823,480.851,14.321 M480.603,54.577c0.078-1.488-0.889-2.287-2.332-2.543
		c-1.443,0.184-2.414,0.945-2.434,2.434c-0.018,1.386,0.871,2.302,2.23,2.386C479.546,56.945,480.524,56.039,480.603,54.577
		 M480.661,34.376c-0.209-1.442-0.98-2.406-2.471-2.398c-1.381,0.008-2.291,0.901-2.35,2.267c-0.063,1.479,0.848,2.446,2.313,2.498
		C479.644,36.795,480.431,35.823,480.661,34.376 M481.274,74.538c-0.027-1.7-1.398-3.031-3.1-3.004
		c-1.699,0.026-3.029,1.398-3.004,3.098c0.025,1.699,1.398,3.031,3.098,3.005C479.97,77.61,481.3,76.239,481.274,74.538
		 M481.274,94.743c0.025-1.699-1.305-3.072-3.004-3.1c-1.701-0.027-3.074,1.303-3.1,3.004c-0.027,1.7,1.303,3.074,3.004,3.1
		C479.874,97.774,481.245,96.444,481.274,94.743 M485.491,144.909c-0.023,1.477,0.896,2.428,2.369,2.445
		c1.488,0.016,2.256-0.969,2.465-2.484c-0.279-1.346-1.035-2.334-2.535-2.281C486.417,142.637,485.517,143.534,485.491,144.909
		 M485.497,124.67c-0.117,1.484,0.783,2.467,2.236,2.57c1.486,0.107,2.299-0.854,2.592-2.367c-0.197-1.346-0.91-2.359-2.406-2.396
		C486.532,122.442,485.606,123.311,485.497,124.67 M489.642,103.219c0.076-1.082-0.623-1.674-1.672-1.879
		c-1.055,0.113-1.766,0.664-1.799,1.744c-0.029,1.01,0.607,1.684,1.598,1.764C488.851,104.934,489.565,104.278,489.642,103.219
		 M489.575,49.438c0.078-1.083-0.621-1.675-1.67-1.879c-1.053,0.114-1.766,0.664-1.797,1.744c-0.031,1.009,0.605,1.683,1.596,1.762
		C488.786,51.151,489.501,50.495,489.575,49.438 M490.905,64.436c-0.049-1.498-1.271-2.654-2.77-2.525
		c-1.561,0.134-2.422,1.047-2.477,2.611c-0.053,1.503,1.156,2.659,2.66,2.635C489.821,67.134,490.956,65.941,490.905,64.436
		 M490.905,84.612c-0.014-1.502-1.205-2.683-2.707-2.59c-1.561,0.096-2.445,0.984-2.539,2.547c-0.09,1.502,1.092,2.688,2.596,2.699
		C489.761,87.28,490.921,86.118,490.905,84.612 M512.474,44.391c-0.016-2.244-1.867-4.072-4.111-4.057
		c-2.246,0.014-4.074,1.866-4.057,4.11c0.014,2.245,1.865,4.072,4.109,4.058C510.657,48.488,512.487,46.635,512.474,44.391
		 M531.774,44.275c-0.078-1.728-1.539-3.128-3.268-3.132c-1.811-0.003-3.307,1.509-3.281,3.318c0.023,1.809,1.559,3.283,3.367,3.231
		C530.399,47.64,531.854,46.078,531.774,44.275 M552.749,44.535c0.053-2.316-1.602-4.132-3.871-4.25
		c-2.406-0.125-4.305,1.562-4.402,3.916c-0.104,2.399,1.611,4.28,3.969,4.356C550.841,48.634,552.696,46.902,552.749,44.535
		 M560.339,47.29c-4.436-1.046-7.975,1.684-9.219,7.067c-1.986,0.089-3.957,0.177-5.916,0.265c-1.318-4.662-3.73-6.999-7.08-6.491
		c-1.379,0.21-2.826,0.902-3.93,1.772c-1.906,1.498-2.199,3.79-2.057,5.816h-6.615c-0.291-5.032-2.439-7.816-6.199-8.188
		c-4.207-0.417-6.615,1.654-8.082,6.795c-2.377,0.171-4.682,0.337-7.168,0.515c-1.234-4.36-3.068-6.122-6.184-5.835
		c-2.617,0.24-4.602,2.127-4.973,4.733c-0.461,3.218,1.07,4.901,5.688,6.488v7.842c-3.736,0.545-6.404,2.341-6.547,6.235
		c-0.16,4.313,2.738,6.212,6.379,6.836v7.065c-3.467,0.508-6.111,2.213-6.367,6.009c-0.285,4.2,2.422,6.216,6.131,7.038
		c-0.131,1.322-0.338,2.445-0.324,3.568c0.016,1.188,0.24,2.373,0.373,3.559c-4.598,1.119-6.459,2.941-6.492,6.346
		c-0.033,3.441,1.721,5.211,6.314,6.496v7.355c-4.248,0.797-6.324,2.865-6.314,6.361c0.01,3.467,2.014,5.449,6.434,6.361v7.885
		c-4.016,0.648-6.115,2.736-5.961,6.15c0.129,2.836,2.439,5.203,5.262,5.391c3.43,0.227,5.496-1.811,6.336-6.127
		c2.121,0.227,4.23,0.449,6.373,0.68c2.596,6.385,6.063,8.59,10.656,6.723c4.334-1.76,5.678-5.961,3.6-11.246
		c5.104,1.516,8.732,0.258,9.813-3.73c0.404-1.498,0.26-3.381-0.283-4.848c-0.994-2.662-3.424-3.715-6.117-3.91
		c0.119-1.299,0.291-2.357,0.289-3.416c-0.002-1.057-0.178-2.111-0.279-3.16c4.77-1.238,6.824-3.16,6.717-6.66
		c-0.039-1.332-0.346-3.025-1.199-3.883c-1.463-1.471-3.457-2.41-5.387-3.674v-5.984c4.355-0.84,6.555-2.996,6.643-6.504
		c0.092-3.748-1.852-5.779-6.635-7.025v-5.889c2.779-0.062,4.963-1.027,6.523-3.189c1.553-2.146,1.484-4.563,0.957-7.208
		c2.738,0.953,5.125,0.71,7.342-0.755c2.213-1.465,3.135-3.719,3.533-6.274h4.76c1.471,5.251,4.502,7.943,8.492,7.097
		c1.602-0.34,3.273-1.289,4.459-2.431c2.145-2.063,2.209-4.838,1.414-7.695c6.426,2.04,10.541-2.258,10.73-6.07
		c0.092-1.86-0.5-4.051-1.523-5.606c-2.105-3.204-5.508-3.537-9.102-2.651C566.712,52.201,564.571,48.289,560.339,47.29
		 M572.749,44.575c0.1-2.076-1.701-4.046-3.82-4.18c-2.072-0.131-4.061,1.641-4.227,3.765c-0.168,2.146,1.721,4.214,3.912,4.285
		C570.696,48.514,572.647,46.686,572.749,44.575 M583.935,54.467c-0.004-2.744-2.365-5.121-5.115-5.151
		c-2.734-0.031-5.135,2.307-5.201,5.063c-0.066,2.8,2.408,5.292,5.215,5.252C581.583,59.591,583.94,57.208,583.935,54.467
		 M586.341,65.628c0.076-1.083-0.623-1.675-1.672-1.879c-1.053,0.114-1.766,0.664-1.799,1.744c-0.029,1.009,0.609,1.684,1.598,1.763
		C585.55,67.342,586.265,66.686,586.341,65.628"/>
	<path fill="#FFFFFF" d="M343.548,137.584c3.389,0,6.135-2.746,6.135-6.133c0-3.385-2.746-6.131-6.135-6.131
		c-3.387,0-6.131,2.746-6.131,6.131C337.417,134.838,340.161,137.584,343.548,137.584"/>
	<path fill="#FFFFFF" d="M332.12,137.584c2.926,0,5.297-2.371,5.297-5.297c0-2.924-2.371-5.297-5.297-5.297
		c-2.924,0-5.295,2.373-5.295,5.297C326.825,135.213,329.196,137.584,332.12,137.584"/>
	<path fill="#FFFFFF" d="M340.603,131.452c5.596,0,10.131-4.535,10.131-10.129s-4.535-10.131-10.131-10.131
		s-10.131,4.537-10.131,10.131S335.007,131.452,340.603,131.452"/>
	<path fill="#FFFFFF" d="M340.603,124.723c5.596,0,10.131-4.535,10.131-10.129s-4.535-10.131-10.131-10.131
		s-10.131,4.537-10.131,10.131S335.007,124.723,340.603,124.723"/>
</g>
</svg>
