<?xml version="1.0" encoding="utf-8"?>
<!-- Generator: Adobe Illustrator 16.0.0, SVG Export Plug-In . SVG Version: 6.00 Build 0)  -->
<!DOCTYPE svg PUBLIC "-//W3C//DTD SVG 1.1//EN" "http://www.w3.org/Graphics/SVG/1.1/DTD/svg11.dtd">
<svg version="1.1" id="Vrstva_1" xmlns="http://www.w3.org/2000/svg" xmlns:xlink="http://www.w3.org/1999/xlink" x="0px" y="0px"
	 width="586.346px" height="170.38px" viewBox="0 0 586.346 170.38" enable-background="new 0 0 586.346 170.38"
	 xml:space="preserve">
<g>
	<defs>
		<rect id="SVGID_1_" width="586.346" height="170.38"/>
	</defs>
	<clipPath id="SVGID_2_">
		<use xlink:href="#SVGID_1_"  overflow="visible"/>
	</clipPath>
	<path clip-path="url(#SVGID_2_)" fill="#3C8F6C" d="M576.057,74.72c0.08,1.426,1.391,2.635,2.805,2.585
		c1.428-0.051,2.658-1.337,2.635-2.757c-0.02-1.426-1.281-2.676-2.707-2.684C577.289,71.855,575.973,73.231,576.057,74.72
		 M565.957,84.473c-0.186,1.432,1.174,2.875,2.646,2.949c1.451,0.074,2.857-1.242,2.9-2.713c0.043-1.465-1.293-2.905-2.764-2.835
		C567.133,81.95,566.162,82.893,565.957,84.473 M544.031,84.5c-0.066,2.682,1.918,4.723,4.588,4.719
		c2.594-0.005,4.551-1.951,4.57-4.539c0.02-2.594-1.91-4.578-4.49-4.619C546.105,80.019,544.096,81.93,544.031,84.5
		 M535.172,154.909c-0.061,1.76,1.209,3.089,2.961,3.099c1.682,0.01,2.939-1.191,3-2.859c0.063-1.761-1.209-3.09-2.961-3.101
		C536.492,152.039,535.232,153.241,535.172,154.909 M534.879,134.984c0.035,1.73,1.461,3.164,3.191,3.207
		c1.807,0.047,3.338-1.434,3.357-3.242c0.018-1.809-1.482-3.316-3.291-3.306C536.324,131.652,534.84,133.177,534.879,134.984
		 M534.879,114.814c0.002,1.809,1.521,3.298,3.33,3.266c1.811-0.032,3.277-1.575,3.219-3.381c-0.059-1.729-1.5-3.144-3.232-3.168
		C536.387,111.507,534.875,113.003,534.879,114.814 M534.699,94.654c-0.023,1.893,1.469,3.445,3.363,3.495
		c1.967,0.051,3.578-1.542,3.545-3.512c-0.035-1.895-1.568-3.4-3.463-3.395C536.25,91.246,534.723,92.759,534.699,94.654
		 M524.189,165.005c-0.049,2.14,1.785,4,3.93,3.986c2.076-0.014,3.836-1.75,3.885-3.829c0.051-2.138-1.783-4-3.93-3.986
		C526,161.191,524.236,162.926,524.189,165.005 M503.158,165.175c0.063,2.531,2.299,4.73,4.82,4.736
		c2.586,0.006,4.896-2.345,4.836-4.919c-0.063-2.531-2.301-4.729-4.82-4.736C505.408,160.25,503.098,162.602,503.158,165.175
		 M486.172,162.687c-0.029,1.009,0.605,1.684,1.598,1.763c1.082,0.086,1.795-0.57,1.871-1.628c0.078-1.083-0.621-1.674-1.67-1.879
		C486.916,161.057,486.203,161.607,486.172,162.687 M474.84,155.009c-0.012,1.758,1.303,3.041,3.063,2.999
		c1.746-0.042,2.99-1.4,2.895-3.161c-0.088-1.659-1.379-2.839-3.061-2.799C476.066,152.089,474.85,153.331,474.84,155.009
		 M474.545,134.789c-0.07,1.806,1.389,3.359,3.195,3.402c1.809,0.044,3.338-1.438,3.355-3.246c0.016-1.808-1.488-3.315-3.299-3.302
		C476.068,131.654,474.613,133.063,474.545,134.789 M477.918,118.08c1.807-0.055,3.26-1.62,3.178-3.422
		c-0.08-1.727-1.545-3.126-3.275-3.127c-1.809,0-3.303,1.514-3.275,3.323C474.572,116.663,476.111,118.137,477.918,118.08
		 M463.857,165.152c0.043,2.081,1.797,3.819,3.875,3.839c2.143,0.021,3.982-1.838,3.939-3.977c-0.043-2.08-1.799-3.818-3.877-3.839
		C465.652,161.156,463.814,163.014,463.857,165.152 M442.824,165.114c0.021,2.527,2.227,4.75,4.758,4.797
		c2.576,0.048,4.92-2.277,4.898-4.857c-0.021-2.527-2.225-4.75-4.756-4.798C445.148,160.209,442.805,162.533,442.824,165.114
		 M431.043,44.54c0.078-1.084-0.621-1.675-1.672-1.879c-1.053,0.113-1.764,0.663-1.797,1.744c-0.029,1.009,0.607,1.683,1.598,1.762
		C430.254,46.254,430.967,45.597,431.043,44.54 M430.572,64.483c-0.023-1.502-1.221-2.674-2.721-2.572
		c-1.564,0.106-2.443,1-2.525,2.563c-0.08,1.503,1.109,2.681,2.613,2.683C429.445,67.16,430.598,65.988,430.572,64.483
		 M430.572,84.613c-0.014-1.503-1.201-2.644-2.705-2.602c-1.502,0.042-2.662,1.253-2.541,2.754c0.125,1.561,1.031,2.428,2.596,2.493
		C429.424,87.319,430.588,86.118,430.572,84.613 M425.896,104.441c-0.035,1.178,0.709,1.966,1.865,2.058
		c1.266,0.102,2.1-0.666,2.188-1.901c0.09-1.266-0.727-1.956-1.953-2.195C426.766,102.535,425.934,103.179,425.896,104.441
		 M425.896,124.847c-0.035,1.179,0.709,1.968,1.865,2.059c1.266,0.101,2.1-0.665,2.188-1.901c0.09-1.266-0.727-1.957-1.953-2.194
		C426.766,122.942,425.934,123.584,425.896,124.847 M425.16,164.966c-0.063,1.479,0.848,2.445,2.316,2.498
		c1.486,0.053,2.273-0.92,2.506-2.366c-0.209-1.442-0.982-2.406-2.471-2.398C426.129,162.707,425.219,163.601,425.16,164.966
		 M402.604,165.007c-0.052,2.574,2.268,4.92,4.85,4.904c2.525-0.016,4.753-2.22,4.805-4.751c0.053-2.574-2.269-4.92-4.852-4.904
		C404.882,160.273,402.654,162.476,402.604,165.007 M383.154,165.069c-0.007,2.385,1.768,4.174,4.152,4.181
		c2.386,0.007,4.174-1.768,4.181-4.151c0.007-2.386-1.769-4.175-4.152-4.182C384.949,160.91,383.16,162.687,383.154,165.069
		 M372.795,155.083c0.032,2.425,2.105,4.446,4.524,4.414c2.424-0.033,4.446-2.104,4.414-4.523c-0.034-2.426-2.104-4.446-4.524-4.414
		C374.784,150.592,372.764,152.663,372.795,155.083 M363.303,144.971c-0.003,2.068,1.727,3.847,3.804,3.909
		c2.136,0.064,4.008-1.758,4.009-3.904c0.001-2.069-1.728-3.848-3.804-3.909C365.174,141.001,363.304,142.822,363.303,144.971
		 M347.288,145.234c-0.013,2.163,1.597,3.794,3.755,3.808c2.161,0.014,3.794-1.596,3.808-3.754c0.013-2.162-1.597-3.795-3.753-3.807
		C348.935,141.467,347.303,143.076,347.288,145.234 M324.161,165.156c0.044,1.483,1.427,2.796,2.9,2.753
		c1.481-0.044,2.795-1.427,2.752-2.897c-0.043-1.482-1.427-2.797-2.899-2.754C325.432,162.301,324.118,163.685,324.161,165.156
		 M302.048,165.04c-0.027,2.503,2.156,4.776,4.685,4.871c2.576,0.098,4.94-2.178,4.97-4.784c0.03-2.502-2.155-4.774-4.683-4.871
		C304.444,160.158,302.078,162.435,302.048,165.04 M283.047,165.06c-0.012,2.154,1.635,3.778,3.794,3.742
		c2.068-0.034,3.632-1.619,3.643-3.693c0.012-2.155-1.634-3.779-3.793-3.743C284.622,161.4,283.059,162.984,283.047,165.06
		 M276.246,155.736c-0.03,1.009,0.607,1.684,1.597,1.763c1.082,0.086,1.796-0.569,1.872-1.628c0.078-1.083-0.622-1.674-1.671-1.879
		C276.989,154.107,276.278,154.656,276.246,155.736 M272.93,134.891c-0.014,2.161,1.596,3.795,3.754,3.808
		c2.162,0.013,3.794-1.596,3.807-3.754c0.014-2.162-1.595-3.794-3.754-3.808C274.576,131.123,272.943,132.732,272.93,134.891
		 M276.742,120.079c2.837-0.019,5.23-2.418,5.241-5.254c0.011-2.833-2.366-5.251-5.203-5.292c-2.83-0.041-5.272,2.316-5.342,5.154
		C271.366,117.591,273.832,120.099,276.742,120.079 M242.712,165.025c-0.031,2.219,1.705,3.939,3.924,3.891
		c2.135-0.048,3.763-1.732,3.741-3.875c-0.023-2.137-1.686-3.786-3.825-3.79C244.412,161.247,242.742,162.889,242.712,165.025
		 M221.148,165.172c0.048,2.852,2.423,5.19,5.274,5.196c2.929,0.006,5.345-2.445,5.296-5.373c-0.048-2.85-2.424-5.19-5.274-5.196
		C223.515,159.792,221.099,162.244,221.148,165.172 M202.279,164.825c-0.161,2.163,1.685,4.21,3.885,4.31
		c2.086,0.095,4.045-1.673,4.202-3.793c0.16-2.162-1.686-4.211-3.885-4.31C204.394,160.939,202.436,162.705,202.279,164.825
		 M171.955,134.909c-0.005,2.369,1.779,4.18,4.143,4.209c2.371,0.029,4.207-1.736,4.259-4.093c0.052-2.375-1.691-4.233-4.043-4.31
		C173.857,130.638,171.959,132.463,171.955,134.909 M162.893,146.281c0.07,1.495,0.911,2.345,2.403,2.436
		c1.426,0.088,2.563-1.072,2.542-2.751c-0.149-1.21-0.903-2.104-2.41-2.188C164.001,143.699,162.825,144.854,162.893,146.281
		 M152.86,155.006c-0.014,1.594,1.402,3.102,3.012,3.204c1.652,0.108,3.279-1.375,3.357-3.059c0.078-1.66-1.429-3.262-3.112-3.309
		C154.447,151.798,152.875,153.325,152.86,155.006 M142.519,163.732c0.111,2.342,1.428,3.675,3.767,3.817
		c2.238,0.138,4.021-1.682,3.987-4.313c-0.233-1.899-1.415-3.302-3.779-3.432C144.256,159.682,142.413,161.493,142.519,163.732
		 M120.976,164.954c-0.062,2.782,2.103,5.019,4.873,5.031c2.698,0.014,4.871-2.088,4.931-4.772c0.062-2.781-2.102-5.018-4.873-5.031
		C123.208,160.168,121.036,162.271,120.976,164.954 M100.471,165.074c-0.005,2.889,2.305,5.251,5.187,5.305
		c2.97,0.057,5.4-2.32,5.405-5.287c0.004-2.888-2.305-5.25-5.186-5.304C102.905,159.732,100.476,162.108,100.471,165.074
		 M81.401,164.899c-0.104,2.396,1.772,4.396,4.169,4.443c2.321,0.048,4.242-1.756,4.342-4.073c0.103-2.397-1.773-4.397-4.17-4.445
		C83.422,160.777,81.501,162.58,81.401,164.899 M41.981,165c-0.048,1.97,1.55,3.575,3.519,3.537c1.896-0.036,3.397-1.575,3.388-3.47
		c-0.009-1.895-1.526-3.418-3.42-3.438C43.572,161.611,42.026,163.107,41.981,165 M20.496,164.995
		c-0.06,2.573,2.255,4.924,4.84,4.916c2.52-0.008,4.755-2.209,4.815-4.739c0.06-2.573-2.254-4.924-4.84-4.916
		C22.79,160.265,20.555,162.464,20.496,164.995 M2.387,165.097c0.008,1.482,1.358,2.82,2.838,2.813
		c1.483-0.008,2.821-1.358,2.813-2.838c-0.009-1.483-1.359-2.821-2.838-2.813C3.716,162.267,2.379,163.616,2.387,165.097
		 M0.542,144.978c0.003,2.61,2.117,4.696,4.725,4.665c2.53-0.031,4.562-2.045,4.615-4.575c0.055-2.604-2.018-4.738-4.625-4.764
		C2.65,140.276,0.539,142.368,0.542,144.978 M5.614,59.681c-2.602,0-4.88,2.301-4.847,4.898c0.031,2.535,2.207,4.734,4.747,4.798
		c2.597,0.064,4.916-2.184,4.948-4.798C10.495,61.982,8.216,59.681,5.614,59.681 M5.589,49.266c2.602,0.016,4.889-2.271,4.873-4.873
		c-0.017-2.607-2.327-4.871-4.923-4.823c-2.537,0.047-4.725,2.235-4.772,4.772C0.718,46.939,2.982,49.249,5.589,49.266
		 M5.677,79.792c-2.597-0.041-4.903,2.23-4.91,4.835c-0.008,2.521,2.149,4.758,4.685,4.86c2.577,0.104,4.937-2.126,5.01-4.735
		C10.535,82.157,8.292,79.832,5.677,79.792 M5.591,99.903c-2.608,0.015-4.872,2.325-4.824,4.921
		c0.046,2.538,2.233,4.727,4.771,4.774c2.595,0.051,4.907-2.215,4.924-4.821C10.479,102.176,8.192,99.888,5.591,99.903
		 M5.799,120.016c-2.572-0.117-4.946,2.105-5.032,4.712c-0.086,2.589,2.15,4.928,4.763,4.981c2.596,0.055,4.91-2.205,4.932-4.812
		C10.484,122.38,8.333,120.131,5.799,120.016 M3.471,9.571c0.078-1.083-0.623-1.675-1.672-1.879
		C0.746,7.806,0.034,8.356,0.002,9.436c-0.031,1.009,0.607,1.684,1.596,1.762C2.681,11.285,3.395,10.628,3.471,9.571 M10.462,24.285
		c-0.015-2.607-2.322-4.872-4.919-4.826c-2.539,0.045-4.727,2.231-4.776,4.77c-0.051,2.595,2.212,4.908,4.819,4.926
		C8.186,29.173,10.476,26.886,10.462,24.285 M29.017,4.357c0.084-1.848-1.295-3.369-3.13-3.453c-1.849-0.084-3.37,1.296-3.453,3.131
		c-0.084,1.848,1.295,3.369,3.13,3.453C27.413,7.571,28.934,6.192,29.017,4.357 M48.215,4.338c0.106-1.487-0.854-2.299-2.294-2.58
		c-1.447,0.157-2.425,0.912-2.469,2.395c-0.041,1.385,0.833,2.311,2.193,2.42C47.13,6.691,48.111,5.79,48.215,4.338 M44.776,38.585
		v-8.462c4.599-0.477,6.83-2.374,6.765-5.941c-0.053-2.936-2.378-5.389-5.284-5.572c-3.616-0.229-5.481,1.858-6.333,7.113
		c-1.284-0.301-2.567-0.601-3.938-0.923c-0.143-1.274-0.288-2.555-0.429-3.825c4.568-0.79,6.848-3.179,6.762-6.944
		c-0.074-3.201-2.563-5.959-5.675-6.287c-3.99-0.42-6.4,1.687-7.655,6.666h-7.094c-0.592-4.048-2.895-6.337-6.38-6.262
		c-3.061,0.066-5.657,2.471-5.932,5.495c-0.326,3.599,1.858,5.95,6.378,6.93c-0.17,1.993-0.34,3.973-0.519,6.066
		c-4.237,0.645-7.168,2.963-7.323,7.408c-0.169,4.855,2.948,7.302,7.381,8.138v4.461c-5.08,1.511-7.299,3.795-7.461,7.594
		c-0.163,3.804,2.031,6.202,7.502,8.142v4.417c-4.357,0.757-7.357,3.079-7.432,7.638c-0.079,4.76,3.016,7.149,7.405,7.959v4.463
		c-5.068,1.535-7.326,3.603-7.418,7.372c-0.122,4.979,2.956,7.427,7.452,8.306v4.35c-5.462,1.975-7.652,4.179-7.481,7.939
		c0.211,4.664,3.107,7.005,7.447,7.772v4.628c-5.287,1.345-7.468,3.438-7.648,7.26c-0.192,4.08,1.713,6.228,7.418,8.222v5.278
		c-4.818,1.388-7.005,3.688-6.846,7.263c0.143,3.252,2.494,6.04,5.833,6.438c1.373,0.163,2.955-0.182,4.235-0.755
		c2.539-1.139,3.373-3.603,3.739-6.03c1.964,0.108,3.676,0.205,5.341,0.296c1.716,5.292,4.229,7.579,8.037,7.397
		c3.511-0.169,6.538-2.596,7.042-6.044c0.221-1.509,0.036-3.243-0.513-4.663c-1.133-2.936-3.76-4.159-6.769-4.554
		c0.064-1.079,0.112-1.848,0.151-2.507c1.468-0.337,2.693-0.618,3.922-0.901c0.71,4.896,2.625,6.968,6.256,6.83
		c2.894-0.107,5.23-2.305,5.48-5.149c0.329-3.743-1.671-5.715-6.454-6.594v-8.318c4.564-0.6,6.744-2.204,6.737-5.477
		c-0.002-1.256-0.446-2.658-1.111-3.734c-1.315-2.131-3.609-2.484-5.587-2.371v-8.508c4.745-0.773,6.795-2.338,6.703-5.672
		c-0.035-1.253-0.534-2.637-1.221-3.699c-1.321-2.041-3.575-2.321-5.48-2.239v-8.56c4.26-0.322,6.691-2.11,6.689-5.389
		c-0.002-1.312-0.491-2.783-1.2-3.901c-1.303-2.053-3.561-2.36-5.489-2.255v-8.558c4.368-0.365,6.648-2.193,6.76-5.574
		c0.119-3.559-1.91-5.314-7.024-6.119c0.209-1.376,0.585-2.751,0.584-4.125c-0.002-1.421-0.369-2.841-0.577-4.262
		c4.745-0.442,6.993-2.3,7.019-5.782C51.568,40.959,49.504,39.231,44.776,38.585 M60.589,145.016
		c0.019,2.815,2.172,4.932,4.999,4.913c2.816-0.02,4.932-2.172,4.913-4.998c-0.019-2.816-2.171-4.933-4.998-4.913
		C62.686,140.035,60.57,142.189,60.589,145.016 M65.878,107.534c1.465,0.042,2.905-1.293,2.835-2.762
		c-0.076-1.609-1.019-2.58-2.6-2.785c-1.431-0.187-2.875,1.172-2.948,2.644C63.091,106.083,64.406,107.491,65.878,107.534
		 M65.911,79.872c-2.519,0.025-4.722,2.239-4.732,4.754c-0.009,2.508,2.184,4.738,4.705,4.782c2.575,0.044,4.892-2.284,4.832-4.855
		C70.655,82.033,68.413,79.846,65.911,79.872 M68.424,64.247c-0.149-1.211-0.903-2.106-2.41-2.189
		c-1.427-0.079-2.603,1.077-2.535,2.504c0.07,1.494,0.911,2.344,2.402,2.435C67.308,67.084,68.445,65.925,68.424,64.247
		 M79.133,54.549c0.046-1.613-1.325-3.099-2.955-3.204c-1.68-0.108-3.259,1.35-3.306,3.052c-0.045,1.612,1.326,3.099,2.956,3.204
		C77.507,57.709,79.087,56.251,79.133,54.549 M87.41,45.054c0.077-1.083-0.622-1.675-1.672-1.879
		c-1.052,0.114-1.764,0.664-1.797,1.744c-0.03,1.009,0.607,1.684,1.597,1.762C86.62,46.768,87.334,46.112,87.41,45.054
		 M110.572,44.359c-0.038-2.302-2.118-4.35-4.411-4.344c-2.294,0.005-4.367,2.061-4.395,4.361c-0.029,2.366,2.156,4.519,4.512,4.445
		C108.585,48.748,110.611,46.643,110.572,44.359 M130.749,44.427c0.006-2.415-2.043-4.473-4.459-4.478s-4.473,2.044-4.479,4.459
		c-0.005,2.416,2.044,4.473,4.46,4.478C128.687,48.892,130.744,46.843,130.749,44.427 M148.774,44.305
		c-0.062-1.368-0.966-2.265-2.346-2.269c-1.477-0.005-2.42,0.921-2.417,2.395c0.003,1.486,0.993,2.247,2.436,2.426
		C147.889,46.595,148.841,45.796,148.774,44.305 M160.475,54.452c-0.014-2.102-1.895-3.987-3.999-4.007
		c-2.095-0.019-4.006,1.841-4.057,3.948c-0.05,2.089,1.786,4.024,3.898,4.108C158.478,58.587,160.488,56.628,160.475,54.452
		 M153.544,74.635c0.027,1.643,1.306,2.878,2.954,2.852c1.643-0.026,2.878-1.306,2.852-2.954c-0.028-1.642-1.307-2.878-2.954-2.852
		C154.753,71.708,153.518,72.987,153.544,74.635 M156.411,91.715c-1.753,0.019-3.015,1.354-2.944,3.116
		c0.067,1.667,1.334,2.862,3.016,2.844c1.678-0.018,2.911-1.239,2.944-2.915C159.461,93,158.17,91.696,156.411,91.715
		 M162.995,113.353c-0.897-4.035-4.107-5.715-9.39-4.913c2.744-8.072-4.017-13.724-11.187-10.691
		c1.047-5.069-0.559-8.467-4.461-9.445c-4.033-1.011-6.976,1.29-8.414,6.484h-5.753c-1.38-5.08-3.764-7.376-7.555-7.381
		c-3.817-0.006-6.264,2.348-7.542,7.333c-1.019-0.072-2.055-0.144-3.083-0.216c-0.198-1.149-0.366-2.124-0.533-3.098
		c5.383-1.028,7.622-2.816,7.558-6.423c-0.025-1.449-0.508-3.071-1.289-4.289c-1.59-2.48-4.267-2.901-7.172-2.506
		c0.323-1.428,0.555-2.448,0.775-3.42c1.65-0.15,3.151-0.287,4.627-0.421c1.217,4.533,3.222,6.55,6.519,6.642
		c3.259,0.091,5.255-1.835,6.825-6.526h6.312c0.933,5.006,4.202,7.867,8.319,6.859c1.619-0.396,3.265-1.574,4.402-2.841
		c1.846-2.059,1.546-4.668,0.61-7.347c3.823,1.495,7.118,1.166,9.663-1.951c2.005-2.455,2.321-5.31,0.804-8.088
		c-2.349-4.303-6.148-4.784-10.523-3.316c1.523-4.931-0.13-8.65-4.244-9.912c-4.246-1.302-7.426,1.061-9.077,6.639h-5.37
		c-1.135-5.063-3.629-7.427-7.679-7.395c-3.938,0.03-6.443,2.461-7.489,7.412h-5.686c-1.371-5.179-4.146-7.381-8.3-6.559
		c-3.862,0.765-5.633,4.148-4.834,9.428c-3.34-1.229-6.487-1.148-9.18,1.371c-2.678,2.504-2.916,5.647-1.953,9.028
		c-5.337-0.619-8.676,1.201-9.56,5.061c-0.993,4.334,1.224,7.258,6.871,9.032v5.329c-5.507,1.855-7.915,4.581-7.021,8.414
		c0.372,1.597,1.31,3.246,2.443,4.44c1.894,1.999,4.504,2.062,7.252,1.431c-1.241,3.731-0.597,6.869,2.252,9.301
		c2.935,2.505,6.207,2.44,9.588,0.67c-1.225,5.123,0.349,8.565,4.188,9.377c3.963,0.838,6.841-1.494,7.754-6.2h6.67
		c0.937,4.46,3.14,6.914,6.611,6.962c1.395,0.021,2.923-0.434,4.175-1.087c2.306-1.203,3.024-3.557,3.388-5.953
		c1.156,0.16,2.137,0.295,3.19,0.44c0.178,1.067,0.35,2.083,0.521,3.103c-5.345,0.697-7.737,2.883-7.679,6.87
		c0.057,3.933,2.611,6.07,7.94,6.526c-0.251,1.091-0.498,2.16-0.726,3.158c-1.568,0.205-2.94,0.384-4.301,0.562
		c-0.966-4.396-2.764-6.451-5.993-6.45c-1.334,0-3.051,0.25-3.911,1.088c-1.432,1.395-2.314,3.354-3.49,5.172h-6.042
		c-0.866-4.514-3.18-6.902-6.766-7.044c-3.899-0.153-6.21,2.022-7.51,7.068c-2.232-0.002-4.463-0.002-6.721-0.002
		c-0.763-4.089-3.073-6.364-6.429-6.232c-2.955,0.114-5.465,2.443-5.831,5.413c-0.425,3.428,1.715,5.756,6.204,6.943v7.576
		c-4.172,0.691-6.415,3-6.261,6.558c0.132,3.049,2.609,5.588,5.646,5.787c3.601,0.236,5.917-1.965,6.758-6.402
		c1.91,0.177,3.816,0.353,5.835,0.538c1.068,4.918,3.65,7.435,7.651,7.558c4.312,0.132,6.777-2.085,8.401-7.62h3.675
		c1.165,5.257,3.924,7.916,8.186,7.971c4.466,0.058,7.166-2.438,8.572-7.977c1.537-0.088,3.096-0.175,4.648-0.262
		c0.753,4.777,3.669,7.526,7.762,6.909c1.59-0.238,3.282-1.206,4.483-2.319c2.024-1.876,2.006-4.498,1.394-7.284
		c3.536,1.327,6.574,0.854,9.112-1.65c2.594-2.56,2.828-5.705,1.736-9.062c5.855,0.279,8.703-1.478,9.43-5.672
		c0.641-3.703-1.583-6.308-6.809-8.034v-5.959C161.744,120.194,163.93,117.56,162.995,113.353 M146.134,87.883
		c1.752,0.154,3.415-1.308,3.51-3.086c0.09-1.68-1.293-3.251-2.995-3.401c-1.752-0.154-3.415,1.308-3.51,3.086
		C143.049,86.162,144.432,87.733,146.134,87.883 M126.229,89.924c2.848,0.028,5.255-2.287,5.336-5.133
		c0.084-2.925-2.305-5.408-5.233-5.436c-2.848-0.028-5.254,2.287-5.336,5.133C120.911,87.413,123.3,89.896,126.229,89.924
		 M76.012,111.554c-1.694-0.006-3.199,1.445-3.262,3.145c-0.065,1.765,1.469,3.355,3.244,3.361c1.694,0.006,3.199-1.446,3.262-3.146
		C79.32,113.149,77.787,111.56,76.012,111.554 M86.1,120.061c-2.563-0.03-4.884,2.3-4.844,4.859c0.041,2.51,2.254,4.716,4.761,4.743
		c2.563,0.03,4.884-2.3,4.843-4.859C90.82,122.294,88.606,120.088,86.1,120.061 M101.738,124.868
		c0.006,2.102,1.88,3.993,3.985,4.021c2.094,0.027,4.011-1.823,4.072-3.935c0.062-2.166-1.913-4.159-4.084-4.121
		C103.605,120.87,101.735,122.77,101.738,124.868 M165.797,64.874c0.078-1.084-0.622-1.675-1.671-1.879
		c-1.054,0.114-1.766,0.664-1.798,1.744c-0.03,1.009,0.607,1.683,1.597,1.762C165.007,66.588,165.721,65.931,165.797,64.874
		 M167.832,102.091c0.078-1.083-0.622-1.674-1.671-1.879c-1.053,0.114-1.766,0.664-1.798,1.744c-0.03,1.01,0.607,1.685,1.597,1.764
		C167.042,103.806,167.756,103.149,167.832,102.091 M170.267,124.767c-0.044-2.38-1.862-4.116-4.263-4.071
		c-2.379,0.044-4.115,1.862-4.07,4.262c0.044,2.38,1.861,4.116,4.262,4.071C168.576,128.984,170.311,127.167,170.267,124.767
		 M180.642,74.641c0.031-2.246-1.782-4.11-4.028-4.141c-2.245-0.031-4.109,1.782-4.14,4.027c-0.031,2.246,1.781,4.11,4.027,4.141
		C178.747,78.699,180.611,76.886,180.642,74.641 M209.977,44.327c-0.053-1.699-1.549-3.157-3.244-3.162
		c-1.774-0.005-3.316,1.575-3.261,3.344c0.052,1.698,1.548,3.156,3.244,3.161C208.489,47.676,210.032,46.095,209.977,44.327
		 M224.014,53.93c-0.393-3.931-3.341-6.789-7.313-6.863c-4.296-0.079-7.564,3.081-7.704,7.449c-0.001,0.046,0.009,0.087,0.008,0.132
		c-2.562,0.346-4.897,0.66-7.207,0.972c-0.27-4.037-1.857-6.099-4.954-6.206c-2.697-0.093-5.514,2.363-5.577,5.054
		c-0.029,1.186,0.283,2.471,0.978,3.212c2.344,2.499,3.805,2.501,5.693,2.494c-0.308,1.069-0.748,2.592-1.174,4.07
		c-1.572,0.339-3.12,0.672-4.667,1.006c-0.606-4.143-2.429-6.094-5.62-6.026c-2.576,0.054-4.157,0.794-5.267,3.771
		c-0.42,1.123-0.266,3.343,0.136,4.313c0.788,1.897,2.637,3.191,5.777,3.287c-0.232,1.625-0.53,3.72-0.829,5.825
		c-5.088,1.271-7.682,3.96-7.764,8.073c-0.083,4.147,2.356,6.778,7.891,8.482v2.262c-1.514,0.407-2.903,0.781-4.315,1.162
		c0.337-4.283-1.768-7.158-5.312-7.345c-2.986-0.157-5.908,2.387-5.8,5.426c0.049,1.361,0.689,2.886,1.519,3.992
		c1.386,1.845,3.564,2.076,5.638,1.754c-0.294,1.611-0.781,3.112-0.781,4.614c0.001,1.467,0.5,2.934,0.782,4.411
		c-4.206-0.361-7.304,1.839-7.17,5.388c0.053,1.407,0.76,3.027,1.683,4.113c1.836,2.161,4.386,2.008,7.064,0.975
		c-3.302,6.903-1.38,10.841,6.443,13.57c0,0.942-0.085,1.949,0.024,2.936c0.106,0.964,0.41,1.907,0.626,2.862
		c-4.193,0.729-6.297,2.731-6.286,5.896c0.01,2.824,2.201,5.401,5.048,5.568c1.195,0.069,2.659,0.196,3.856-0.641
		c1.969-0.951,2.512-2.99,2.871-5.384c0.769,0.175,2.474,0.435,3.711,0.717c0.294,1.355,0.572,2.635,0.849,3.911
		c-4.331,0.953-6.432,3.053-6.221,6.156c0.187,2.764,2.384,5.023,5.165,5.313c3.122,0.326,5.264-1.758,6.303-6.062
		c1.958,0.227,3.902,0.453,5.846,0.676c0.357,2.444,1.61,4.495,3.445,5.826c1.129,1.028,2.505,1.595,4.173,1.619
		c0.121,0.002,0.246-0.017,0.369-0.021c0.041,0.003,0.077,0.018,0.118,0.02c5.175,0.252,9.145-3.592,9.161-8.873
		c0.001-0.396-0.029-0.777-0.079-1.151c0.117-0.463,0.272-0.911,0.468-1.341c2.396-0.667,4.073-2.871,4.082-5.725
		c0.006-2.17-0.948-3.981-2.463-5.027c0.375-0.689,0.606-1.491,0.609-2.387c0.007-2.56-1.702-4.477-4.06-4.627
		c-0.327-1.128-0.771-2.098-1.313-2.927c0.17,0.033,0.339,0.069,0.517,0.076c2.013,0.087,3.756-1.51,3.842-3.52
		c0.087-2.016-1.511-3.758-3.521-3.844c-2.014-0.088-3.757,1.511-3.843,3.521c-0.018,0.424,0.053,0.831,0.172,1.218
		c-1.356-0.623-2.986-0.813-4.879-0.544c0.163-2.681-0.724-5.146-1.963-7.03c-1.703-2.777-5.762-3.983-5.911-3.828
		c-0.08-1.519-0.159-3.036-0.252-4.806c1.212-0.103,2.387-0.373,3.413-0.891c-0.032,0.204-0.066,0.408-0.07,0.623
		c-0.04,2.451,1.82,4.315,4.271,4.281c2.362-0.034,4.141-1.852,4.131-4.221c-0.01-2.369-1.803-4.167-4.171-4.182
		c-0.44-0.003-0.852,0.076-1.247,0.188c0.449-1.157,0.687-2.466,0.654-3.677c-0.021-0.778-0.179-1.482-0.439-2.129
		c0.254,0.055,0.512,0.093,0.776,0.099c2.296,0.038,4.387-1.996,4.427-4.31c0.039-2.296-1.997-4.388-4.31-4.427
		c-2.296-0.039-4.387,1.996-4.427,4.309c-0.005,0.344,0.048,0.678,0.129,1.005c-0.876-0.405-1.885-0.729-3.039-0.956v-3.875
		c2.399-1.575,4.169-1.741,5.844-3.388c1.834-1.804,2.594-5.272,2.093-7.336c2.236-0.218,3.818-0.618,5.189-1.305
		c3.622-1.024,6.132-4.222,6.145-8.311c0.002-0.649-0.065-1.272-0.184-1.872c1.958-1.057,3.244-3.087,3.251-5.587
		c0.008-2.357-1.114-4.314-2.885-5.428c0.343-0.888,0.415-1.824,0.237-2.712c-0.062-0.204-0.112-0.41-0.161-0.618
		c-0.37-1.085-1.106-2.049-2.17-2.664l0.064-0.122C224.113,54.215,224.06,54.083,224.014,53.93 M231.387,44.45
		c0.015-2.593-1.933-4.569-4.519-4.584c-2.593-0.015-4.57,1.934-4.584,4.519c-0.015,2.593,1.933,4.57,4.519,4.585
		C229.396,48.984,231.372,47.036,231.387,44.45 M266.835,77.14c-0.467-2.761-0.912-5.388-1.341-7.926
		c3.467,0.486,6.053-1.139,6.393-4.243c0.286-2.621-1.963-5.319-4.65-5.221c-1.173,0.042-2.5,0.596-3.437,1.328
		c-1.716,1.341-1.828,3.359-1.375,5.267c-2.08-0.585-4.049-1.138-5.559-1.563c-0.971-2.278-1.823-4.278-2.676-6.279
		c0.571,0.165,1.135,0.36,1.714,0.489c2.187,0.487,4.229-0.439,5.23-2.347c0.951-1.816,0.593-4.096-0.868-5.521
		c-1.455-1.418-3.76-1.721-5.543-0.727c-1.875,1.046-2.754,3.121-2.217,5.293c0.142,0.576,0.351,1.136,0.53,1.702
		c-2.602-1.882-5.459-2.636-8.599-1.873c0.059-0.4,0.121-0.801,0.122-1.225c0.013-4.4-3.196-7.69-7.58-7.769
		c-4.405-0.08-7.758,3.081-7.901,7.449c-0.052,1.569,0.325,3.003,1.008,4.221c-0.599,0.506-0.982,1.252-1.011,2.137
		c-0.054,1.641,1.084,2.912,2.685,3.034c0.344,1.21,0.402,2.488,0.205,3.755c-2.42,1.428-4.01,3.996-4.113,7.134
		c-0.075,2.269,0.647,4.281,1.892,5.841l-0.79,0.941c-0.729-0.524-1.6-0.846-2.52-0.847c-2.392-0.001-4.484,2.112-4.454,4.5
		c0.031,2.403,2.161,4.465,4.55,4.403c2.394-0.061,4.445-2.229,4.353-4.599c-0.035-0.903-0.371-1.749-0.898-2.452l0.758-0.904
		c1.405,1.234,3.219,2.03,5.318,2.13c0.779,0.037,1.527-0.026,2.242-0.162c-0.119,2.584,0.367,4.713,1.454,6.379
		c-0.597-0.25-1.26-0.389-1.967-0.392c-2.828-0.016-4.975,2.102-4.991,4.921c-0.015,2.827,2.103,4.975,4.922,4.99
		c2.828,0.016,4.975-2.103,4.99-4.921c0.005-0.821-0.188-1.572-0.507-2.242c1.233,0.761,2.729,1.316,4.575,1.594v3.581
		c-0.594,0.15-1.23,0.295-1.858,0.471c-3.105,0.869-5.308,3.626-5.532,6.912c-0.201,2.947,1.681,5.973,4.497,7.23
		c1.507,0.675,2.465,1.198,2.465,1.198s0.14,1.874-0.018,3.428c-1.77,0.668-3.164,1.261-4.258,1.88
		c0.362-0.637,0.601-1.343,0.633-2.089c0.108-2.544-2.165-4.918-4.746-4.957c-2.482-0.039-4.751,2.133-4.858,4.646
		c-0.109,2.545,2.164,4.919,4.746,4.959c0.568,0.008,1.122-0.111,1.645-0.313c-1.019,1.548-1.219,3.611-1.115,6.95
		c-0.781-0.065-1.5-0.049-2.191,0.007c-0.064-0.002-0.123-0.02-0.188-0.021c-4.167-0.079-7.339,3.082-7.475,7.449
		c-0.089,2.866,1.138,5.295,3.129,6.715c0.912,1.899,1.122,4.085,0.539,6.162c-2.387,1.252-3.988,3.706-4.085,6.767
		c-0.141,4.422,2.813,7.852,6.979,8.231c0.039,0.008,0.078,0.012,0.118,0.018c0.074,0.005,0.143,0.028,0.22,0.032
		c0.026,0.001,0.05-0.005,0.076-0.004c0.192,0.021,0.38,0.048,0.578,0.056c4.305,0.164,6.933-2.192,8.428-7.675
		c1.083,0,2.225,0.104,3.338-0.029c1.101-0.132,2.175-0.503,3.267-0.771c0.548,4.174,2.381,6.137,5.615,6.077
		c2.676-0.05,4.909-2.074,5.168-4.686c0.334-3.366-1.545-5.293-6.043-6.185c0.343-1.413,0.687-2.825,1.027-4.228
		c1.431-0.339,2.846-0.675,4.262-1.011c0.628,4.217,2.36,6.098,5.574,6.071c2.686-0.023,5.088-2.006,5.182-4.606
		c0.045-1.26-0.213-3.176-0.978-4.134c-1.296-1.305-2.633-2.059-4.786-2.201c0.723-2.308,0.765-4.449,0.815-6.69
		c4.798-1.22,7.204-3.663,7.38-7.504c0.18-3.937-2.063-6.414-7.479-8.267v-3.906c4.953-0.767,7.946-3.297,8.196-7.307
		c0.103-1.645-0.361-3.473-1.066-4.986c-1.289-2.766-3.984-3.75-6.854-4.244v-4.319c4.712-0.84,7.267-3.493,7.275-7.482
		C274.409,80.449,272.016,78.159,266.835,77.14 M280.459,74.67c0.041-1.889-1.3-3.344-3.161-3.431
		c-1.969-0.092-3.49,1.311-3.532,3.259c-0.04,1.889,1.3,3.344,3.161,3.431C278.896,78.021,280.417,76.617,280.459,74.67
		 M282.174,94.625c-0.04-2.833-2.352-5.059-5.182-4.991c-2.755,0.066-4.924,2.275-4.94,5.031c-0.018,2.834,2.248,5.104,5.081,5.091
		C279.968,99.744,282.213,97.458,282.174,94.625 M287.064,140.075c-2.702-0.141-5.004,1.854-5.192,4.499
		c-0.198,2.784,1.858,5.153,4.596,5.296c2.784,0.146,5.104-1.952,5.199-4.7C291.76,142.464,289.727,140.214,287.064,140.075
		 M290.959,123.997c0.078-1.083-0.622-1.675-1.671-1.879c-1.053,0.114-1.766,0.664-1.799,1.744
		c-0.029,1.009,0.608,1.684,1.598,1.762C290.169,125.711,290.883,125.056,290.959,123.997 M296.854,110.254
		c-2.593-0.014-4.57,1.936-4.584,4.521c-0.015,2.593,1.933,4.568,4.518,4.584c2.594,0.015,4.57-1.935,4.584-4.521
		C301.388,112.245,299.44,110.27,296.854,110.254 M300.291,93.522c0.077-1.084-0.622-1.675-1.672-1.879
		c-1.052,0.114-1.764,0.664-1.798,1.744c-0.03,1.009,0.608,1.683,1.598,1.762C299.5,95.236,300.214,94.58,300.291,93.522
		 M309.011,64.256c0.077-1.084-0.622-1.675-1.672-1.88c-1.055,0.114-1.767,0.664-1.799,1.744c-0.029,1.009,0.607,1.684,1.598,1.763
		C308.22,65.969,308.935,65.313,309.011,64.256 M311.73,84.75c0.066-2.304-1.858-4.395-4.192-4.555
		c-2.359-0.162-4.575,1.83-4.708,4.234c-0.131,2.367,1.889,4.561,4.288,4.662C309.488,89.191,311.66,87.146,311.73,84.75
		 M321.404,54.419c-0.033-2.221-1.961-4.076-4.174-4.015c-2.144,0.059-3.939,1.881-3.965,4.023
		c-0.027,2.215,1.855,4.118,4.073,4.115C319.556,58.54,321.435,56.633,321.404,54.419 M331.071,24.314
		c0.004-2.02-1.655-3.686-3.674-3.689c-2.021-0.004-3.687,1.655-3.69,3.675s1.656,3.686,3.676,3.689
		C329.403,27.993,331.069,26.334,331.071,24.314 M344.397,12.825c-0.752,0-1.45,0.225-2.04,0.6c-0.619-2.72-2.336-4.261-4.962-4.235
		c-2.621,0.027-4.872,1.976-4.914,4.589c-0.02,1.188,0.26,2.773,1.039,3.492c1.27,1.175,3.06,1.787,4.558,2.597
		c-0.006,0.037-0.011,0.079-0.017,0.116c-1.334,1.02-2.206,2.613-2.206,4.424c0,0.789,0.18,1.528,0.477,2.204
		c-6.185,1.841-7.736,5.277-5.564,12.299c-5.419-1.066-8.688,0.308-9.313,4.21c-0.224,1.409,0.134,3.091,0.741,4.412
		c1.034,2.252,3.265,2.95,5.522,3.148c-0.194,1.919-0.375,3.702-0.558,5.485c-5.968,1.093-9.543,5.529-7.09,12.445
		c-4.659-0.824-7.832,0.523-8.721,4.033c-0.354,1.391-0.221,3.085,0.231,4.463c0.913,2.773,3.475,3.628,5.998,4.073
		c-0.171,1.782-0.314,3.299-0.467,4.886c-2.942,0.396-5.408,1.578-7.01,4.158c-1.582,2.546-1.596,5.258-0.602,8.053
		c-5.053-0.185-8,1.446-8.576,4.98c-0.232,1.43,0.034,3.099,0.57,4.462c0.958,2.432,3.239,3.352,5.617,3.762
		c-0.166,1.639-0.311,3.083-0.471,4.663c-2.989,0.27-5.405,1.513-7.066,4.046c-1.655,2.525-1.503,5.277-0.876,8.084
		c-4.813-0.21-7.798,1.588-8.353,5.255c-0.217,1.433,0.016,3.106,0.575,4.448c1.071,2.573,3.495,3.506,5.944,3.805v5.74
		c-5.034,0.896-7.605,3.778-7.36,8.089c0.198,3.478,3.127,6.468,6.589,6.726c4.35,0.325,7.204-2.175,8.264-7.301
		c1.702,0,3.421,0,5.143,0.002c2.128,5.528,4.296,7.435,8.027,7.059c3.357-0.34,6.006-2.67,6.323-5.972
		c0.138-1.452-0.153-3.09-0.731-4.435c-1.129-2.631-3.64-3.529-6.31-3.958c0.118-0.988,0.21-1.765,0.305-2.564
		c1.15-0.17,2.175-0.321,3.178-0.471c1.27,4.742,3.684,6.983,7.098,6.704c3.195-0.262,5.752-2.812,6.022-6.01
		c0.291-3.421-1.974-5.866-6.764-7.118c0.211-1.133,0.403-2.164,0.595-3.198c0.944-0.105,11.655,0.568,13.008-0.146
		c2.226-1.177,1.688,0.315,1.984-1.985l0.85-1.134l5.28-2.588c0.476-1.032,0.76-2.172,0.76-3.383c0-1.191-0.292-2.304-0.76-3.32
		v-0.495c1.646-1.644,2.672-3.901,2.672-6.408c0-1.771-0.515-3.421-1.394-4.818h2.378c2.372-0.553,4.116-2.666,4.093-5.221
		c-0.025-2.965-2.442-5.31-5.422-5.261c-2.884,0.046-5.198,2.391-5.212,5.284c-0.003,0.641,0.119,1.241,0.32,1.804
		c-1.16-0.543-6.421-1.143-7.784-1.146c-0.138-0.025-0.263-0.063-0.403-0.088v-3.599c2.515-0.414,5.035-1.302,6.294-3.807
		c0.721-1.431,1.19-3.17,1.156-4.758c-0.079-3.686-2.662-6.037-7.473-7.241v-1.839c1.145-0.243,2.571-0.647,3.919-0.933
		c0.326,2.395,0.753,4.826,3.081,5.885c1.161,0.528,2.597,0.84,3.846,0.701c2.92-0.324,5.067-2.932,5.136-5.808
		c0.076-3.087-1.845-5.186-5.622-6.207h-2.408v-0.813c1.417-1.6,2.283-3.698,2.283-6.003c0-0.362-0.026-0.717-0.067-1.067
		c-0.014-0.106-0.031-0.208-0.048-0.313c-0.038-0.249-0.085-0.496-0.143-0.739c-0.026-0.107-0.052-0.213-0.082-0.318
		c-0.072-0.256-0.155-0.505-0.248-0.751c-0.027-0.075-0.051-0.151-0.082-0.225c-0.131-0.324-0.277-0.641-0.445-0.945
		c0.95-1.005,1.543-2.353,1.543-3.845c0-2.033-1.093-3.796-2.711-4.779v-4.66c1.344-1.471,2.186-3.377,2.186-5.489
		c0-2.118-0.831-4.038-2.186-5.506v-2.317c1.401-1.335,2.283-3.201,2.283-5.29c0-2.089-0.884-3.954-2.283-5.29v-2.001
		c0.939-0.996,1.525-2.326,1.525-3.805c0-1.473-0.594-2.79-1.525-3.79v-0.355c1.544-0.49,2.672-1.913,2.672-3.619
		C348.215,14.535,346.505,12.825,344.397,12.825 M350.792,4.234c0.021-1.852-1.403-3.309-3.255-3.33
		c-1.851-0.019-3.309,1.404-3.329,3.254c-0.02,1.853,1.404,3.31,3.254,3.33C349.315,7.508,350.773,6.084,350.792,4.234
		 M369.997,4.228c0.028-1.387-0.846-2.309-2.206-2.41c-1.482-0.11-2.463,0.793-2.558,2.248c-0.1,1.488,0.865,2.295,2.381,2.583
		C368.954,6.438,369.968,5.728,369.997,4.228 M380.855,14.194c0.078-1.084-0.622-1.675-1.671-1.879
		c-1.054,0.113-1.766,0.663-1.798,1.743c-0.03,1.01,0.605,1.684,1.597,1.763C380.065,15.907,380.779,15.251,380.855,14.194
		 M390.261,44.535c-0.102-1.569-0.852-2.56-2.444-2.61c-1.573-0.049-2.53,0.82-2.586,2.398c-0.057,1.572,0.817,2.523,2.396,2.588
		C389.216,46.976,390.045,46.052,390.261,44.535 M400.713,74.495c-0.044-1.661-1.305-2.866-2.976-2.847
		c-1.664,0.019-2.89,1.259-2.896,2.925c-0.005,1.745,1.324,3.019,3.076,2.947C399.569,77.452,400.758,76.165,400.713,74.495
		 M411.044,104.663c-0.056-1.88-1.783-3.549-3.649-3.524c-1.878,0.023-3.569,1.725-3.576,3.6c-0.008,1.871,1.669,3.586,3.549,3.625
		C409.315,108.404,411.101,106.607,411.044,104.663 M413.269,123.606c-0.47-1.474-0.831-2.454-2.224-3.6
		c-2.11-1.623-5.143-1.252-7.57,0.006c3.721-6.688,0.408-12.082-5.848-13.155c-0.229-2.106-0.459-4.201-0.688-6.301
		c4.378-0.626,6.498-2.483,6.536-5.79c0.031-2.848-2.1-5.485-4.914-5.672c-1.257-0.083-2.689,0.26-3.814,0.846
		c-2.128,1.109-2.684,3.284-2.826,5.552c-1.443-0.388-2.723-0.731-4.082-1.097c-0.044-0.787-0.085-1.556-0.126-2.305
		c4.51-0.787,7.24-3.27,7.235-6.927c-0.003-1.582-0.525-3.324-1.314-4.707c-1.354-2.37-3.848-3.102-6.079-3.243
		c0.189-2.629-0.219-4.348-1.296-6.98c4.04-0.14,6.748-2.237,6.841-5.512c0.083-2.976-2.033-5.509-4.926-5.486
		c-1.311,0.01-3.046,0.358-3.821,1.233c-1.219,1.373-1.922,3.065-2.161,5.422c-0.938-0.245-2.933-0.891-4.395-1.273
		c-0.063-1.015-0.122-1.93-0.179-2.816c5.17-1.5,7.437-3.853,7.04-7.67c-0.149-1.45-0.803-2.982-1.636-4.196
		c-1.478-2.153-3.916-2.576-6.169-2.625c0-1.484,0.158-2.829-0.043-4.117c-0.207-1.324-0.764-2.595-1.178-3.922
		c4.083,0.632,6.83-1.101,7.202-4.474c0.303-2.737-2.008-5.555-4.871-5.544c-1.232,0.005-2.646,0.559-3.654,1.301
		c-1.954,1.439-2.069,3.652-1.556,5.844c-1.741-0.551-3.318-1.05-4.954-1.567c-0.117-1.131-0.237-2.293-0.356-3.441
		c4.753-0.95,7.242-3.603,7.058-7.424c-0.162-3.375-2.886-6.219-6.257-6.535c-3.89-0.365-6.578,2.066-7.772,7.094
		c-0.894-0.144-1.79-0.289-2.721-0.439c-0.159-1.057-0.305-2.029-0.45-2.992c5.02-1.265,7.012-3.415,6.816-7.285
		c-0.148-2.961-2.384-5.7-5.27-5.979c-1.457-0.14-3.104,0.113-4.446,0.693c-2.388,1.03-3.247,3.266-3.513,5.297v5.664
		c-1.089,0.727-1.809,1.966-1.809,3.374c0,1.193,0.526,2.255,1.346,2.998c-1.569,1.23-2.599,3.122-2.599,5.272
		c0,2.353,1.229,4.394,3.062,5.589v1.519c-1.595,1.226-2.634,3.135-2.634,5.302s1.04,4.075,2.634,5.3v0.829
		c-1.862,1.487-3.062,3.742-3.062,6.281c0,2.537,1.199,4.787,3.062,6.272v2.499c-1.111,1.155-1.809,2.705-1.809,4.432
		c0,1.732,0.695,3.297,1.809,4.459v2.882c1.472,4.347,4.088,5.799,8.809,5.097c-0.545,2.704-0.609,5.322,1.02,7.684
		c0.182,0.263,0.375,0.505,0.573,0.738l-1.05,1.251c-0.769-0.616-1.715-1.007-2.715-0.998c-2.303,0.02-4.354,2.054-4.399,4.361
		c-0.046,2.369,2.088,4.521,4.462,4.499c2.304-0.019,4.354-2.054,4.399-4.361c0.017-0.88-0.27-1.73-0.755-2.45l1.089-1.298
		c1.438,1.184,3.199,1.818,5.21,2.046v4.19c-6.43,2.206-4.001,4.979-2.548,11.16c-2.583-0.974-5.082-1.276-7.539,0.111
		c-0.811,0.455-1.464,1.008-1.998,1.638c-1.479,1.469-2.394,3.502-2.394,5.751c0,1.118,0.248,2.171,0.659,3.139v2.11
		c-1.638,1.482-2.673,3.615-2.673,5.997c0,2.194,0.88,4.176,2.293,5.637c-0.164,0.621-0.279,1.263-0.279,1.937
		c0,4.182,3.19,6.223,6.76,5.866c2.834-0.283,4.027-2.919,4.318-5.195c0.065-0.203,4.108-0.093,4.174-0.307
		c1.678,0.091-0.637-0.108,1.1-0.015c0.827,5.285,4.042,7.752,9.482,7.629c-0.441,3.309,0.107,6.177,2.466,8.472
		c2.414,2.349,5.393,2.653,8.551,2.174c-0.377,5.309,2.636,9.041,7.251,9.24c4.778,0.207,7.563-3.29,7.732-9.705
		c6.223,0.253,9.678-1.768,10.403-6.526c0.255-1.664-0.18-3.615-0.853-5.2c-1.229-2.89-3.99-3.923-6.766-4.434
		c-0.198-1.986-0.379-3.77-0.56-5.561C412.461,130.297,414.017,127.425,413.269,123.606 M421.482,134.848
		c-0.047-2.107-1.978-3.972-4.067-3.926c-2.105,0.046-3.971,1.978-3.925,4.065c0.046,2.107,1.978,3.971,4.066,3.925
		C419.664,138.866,421.529,136.936,421.482,134.848 M423.16,155.064c0.023-3.059-2.527-5.661-5.589-5.711
		c-3.132-0.052-5.799,2.605-5.759,5.741c0.039,3.061,2.633,5.617,5.69,5.608C420.562,160.694,423.143,158.123,423.16,155.064
		 M425.051,145.01c0.021,1.579,0.951,2.472,2.527,2.456c1.596-0.014,2.367-0.984,2.504-2.537c-0.18-1.536-0.982-2.48-2.576-2.45
		C425.926,142.508,425.029,143.435,425.051,145.01 M430.563,24.252c-0.084-1.563-0.963-2.457-2.525-2.563
		c-1.502-0.102-2.697,1.071-2.721,2.574c-0.025,1.505,1.129,2.676,2.633,2.673C429.453,26.933,430.643,25.754,430.563,24.252
		 M433.465,1.879c0.078-1.084-0.623-1.675-1.67-1.879c-1.055,0.113-1.766,0.663-1.801,1.743c-0.029,1.01,0.609,1.684,1.598,1.763
		C432.674,3.592,433.389,2.936,433.465,1.879 M452.141,4.186c-0.008-2.246-1.852-4.08-4.096-4.074
		c-2.246,0.005-4.08,1.849-4.074,4.095c0.006,2.245,1.85,4.079,4.096,4.073C450.313,8.275,452.145,6.431,452.141,4.186
		 M465.115,14.036c-0.082-3.37-2.566-6.242-5.801-6.709c-4.209-0.607-6.531,1.291-8.469,6.763c-2.396,0.187-4.695,0.367-7.049,0.55
		c-1.627-4.662-3.227-6.173-6.318-5.843c-2.619,0.279-4.68,2.174-4.857,4.8c-0.074,1.137,0.043,2.688,0.74,3.39
		c1.416,1.428,3.285,2.406,5.152,3.696c-1.043,2.581-0.811,5.629,0.57,8.622c-4.109,0.575-6.125,2.421-5.943,5.324
		c0.152,2.478,2.273,4.534,4.746,4.599c2.854,0.075,4.668-1.958,5.082-5.387c3.035,0.204,5.9,0.396,8.84,0.593
		c0.799,4.198,3,6.276,6.713,6.09c3.002-0.152,5.463-2.495,5.729-5.455c0.34-3.787-1.572-5.908-6.496-7.153
		c0.145-1.044,0.35-2.091,0.418-3.146c0.072-1.104,0.018-2.217,0.016-3.325C462.977,20.367,465.215,17.973,465.115,14.036
		 M448.059,41.143c-1.73-0.001-3.197,1.396-3.277,3.122c-0.086,1.801,1.365,3.369,3.17,3.427c1.807,0.058,3.348-1.413,3.377-3.221
		C451.359,42.662,449.867,41.146,448.059,41.143 M471.441,4.355c0.088-1.8-1.361-3.372-3.166-3.433
		c-1.727-0.059-3.238,1.29-3.375,3.015c-0.146,1.799,1.252,3.412,3.055,3.53C469.756,7.584,471.352,6.158,471.441,4.355
		 M474.666,24.456c0.072-3.585-2.783-6.575-6.35-6.649c-3.584-0.073-6.578,2.785-6.65,6.351c-0.072,3.585,2.783,6.576,6.352,6.649
		C471.604,30.88,474.592,28.024,474.666,24.456 M468.201,41.8c-1.559,0.032-2.49,0.87-2.646,2.433
		c-0.152,1.497,0.982,2.74,2.475,2.813c1.504,0.074,2.719-1.043,2.766-2.542C470.842,42.999,469.703,41.769,468.201,41.8
		 M474.666,84.815c0.086-3.58-2.006-5.746-6.6-6.907v-6.699c4.455-0.9,6.74-3.309,6.596-6.961c-0.121-3.095-2.533-5.754-5.607-6.18
		c-3.719-0.515-6.129,1.581-7.725,6.774c-1.02-0.191-2.049-0.383-3.029-0.567c-0.201-1.238-0.379-2.335-0.557-3.425
		c4.533-0.829,6.637-2.993,6.537-6.603c-0.084-3.023-2.354-5.557-5.287-5.898c-3.801-0.441-5.947,1.438-7.334,6.392
		c-1.465-0.113-2.934-0.396-4.377-0.289c-1.43,0.106-2.834,0.604-4.248,0.929c-0.561-3.875-2.262-5.812-5.094-5.774
		c-2.389,0.033-4.615,1.939-4.729,4.351c-0.051,1.064,0.172,2.526,0.863,3.156c1.33,1.212,3.082,1.96,4.432,2.764
		c-0.193,2.536-0.408,5.337-0.635,8.254c-3.203,0.47-5.803,2.121-6.115,5.829c-0.387,4.565,2.635,6.469,6.348,7.211v7.038
		c-3.438,0.503-6.02,2.156-6.352,5.864c-0.387,4.333,2.428,6.314,5.982,7.193v7.181c-4.146,0.858-6.252,2.703-6.242,5.936
		c0.006,1.333,0.826,3.57,1.666,4.427c1.396,1.424,2.273,1.915,4.578,2.919v6.878c-4.033,0.655-6.178,2.685-6.307,5.993
		c-0.139,3.614,1.736,5.569,6.428,6.734v7.869c-3.805,0.519-5.955,2.546-5.967,5.796c-0.012,2.868,2.133,5.504,4.936,5.639
		c1.32,0.063,3.061-0.171,3.924-0.989c1.391-1.322,2.211-3.241,3.324-4.988c1.609,0.171,3.717,0.396,5.846,0.623
		c2.223,6.253,6.002,8.636,10.67,6.691c4.301-1.791,5.709-6.285,3.393-11.333c5.008,1.758,8.77,0.332,10.063-3.668
		c1.338-4.142-1.033-7.372-6.375-8.803v-6.547c4.51-0.979,6.613-3.086,6.648-6.678c0.033-3.679-2.018-5.783-6.65-6.861v-6.547
		c4.449-1.117,6.434-2.963,6.635-6.238c0.227-3.723-1.426-5.652-6.236-7.385v-6.569C472.412,90.376,474.584,88.241,474.666,84.815
		 M480.852,14.321c0.037-1.505-1.109-2.727-2.611-2.687c-1.561,0.041-2.484,0.889-2.633,2.449c-0.143,1.498,1.002,2.733,2.496,2.797
		C479.609,16.945,480.813,15.823,480.852,14.321 M480.602,54.577c0.08-1.488-0.889-2.287-2.33-2.543
		c-1.445,0.184-2.416,0.945-2.434,2.434c-0.018,1.386,0.871,2.302,2.23,2.386C479.547,56.945,480.523,56.039,480.602,54.577
		 M480.66,34.376c-0.207-1.442-0.98-2.406-2.471-2.398c-1.381,0.008-2.291,0.901-2.35,2.267c-0.063,1.479,0.85,2.446,2.314,2.498
		C479.643,36.795,480.432,35.823,480.66,34.376 M481.273,74.537c-0.027-1.7-1.398-3.031-3.098-3.004
		c-1.701,0.026-3.031,1.398-3.006,3.098c0.025,1.7,1.398,3.031,3.1,3.005S481.299,76.238,481.273,74.537 M481.273,94.743
		c0.027-1.7-1.303-3.073-3.004-3.1c-1.699-0.027-3.072,1.303-3.1,3.004c-0.025,1.7,1.305,3.073,3.004,3.1
		C479.875,97.774,481.246,96.444,481.273,94.743 M485.492,144.908c-0.025,1.477,0.896,2.429,2.369,2.445
		c1.486,0.017,2.254-0.969,2.463-2.484c-0.277-1.345-1.033-2.333-2.535-2.281C486.418,142.637,485.516,143.533,485.492,144.908
		 M485.498,124.67c-0.119,1.485,0.781,2.467,2.236,2.57c1.486,0.107,2.297-0.854,2.592-2.366c-0.199-1.347-0.912-2.36-2.408-2.397
		C486.531,122.441,485.607,123.311,485.498,124.67 M489.641,103.22c0.078-1.083-0.621-1.675-1.67-1.88
		c-1.055,0.114-1.768,0.664-1.799,1.744c-0.029,1.011,0.605,1.685,1.598,1.764C488.852,104.934,489.564,104.277,489.641,103.22
		 M489.576,49.438c0.078-1.083-0.623-1.675-1.672-1.879c-1.053,0.114-1.764,0.664-1.797,1.744c-0.031,1.009,0.607,1.683,1.596,1.762
		C488.785,51.151,489.5,50.495,489.576,49.438 M490.904,64.436c-0.049-1.498-1.27-2.654-2.768-2.525
		c-1.561,0.134-2.422,1.047-2.479,2.611c-0.051,1.503,1.156,2.659,2.662,2.635C489.822,67.134,490.955,65.941,490.904,64.436
		 M490.906,84.611c-0.014-1.502-1.205-2.682-2.707-2.589c-1.561,0.096-2.447,0.984-2.541,2.546c-0.088,1.503,1.094,2.688,2.598,2.7
		C489.762,87.28,490.922,86.117,490.906,84.611 M512.473,44.391c-0.014-2.244-1.865-4.072-4.111-4.057
		c-2.244,0.014-4.072,1.866-4.057,4.11c0.014,2.245,1.865,4.072,4.109,4.058C510.658,48.488,512.486,46.635,512.473,44.391
		 M531.773,44.275c-0.076-1.728-1.537-3.128-3.268-3.132c-1.811-0.003-3.307,1.509-3.281,3.318s1.561,3.283,3.367,3.231
		C530.4,47.64,531.854,46.078,531.773,44.275 M552.75,44.535c0.053-2.316-1.602-4.132-3.873-4.25
		c-2.404-0.125-4.305,1.562-4.402,3.916c-0.104,2.399,1.611,4.28,3.969,4.356C550.842,48.634,552.695,46.902,552.75,44.535
		 M560.338,47.29c-4.434-1.046-7.975,1.684-9.219,7.067c-1.986,0.089-3.955,0.177-5.916,0.265c-1.316-4.662-3.73-6.999-7.078-6.491
		c-1.381,0.21-2.828,0.902-3.932,1.772c-1.904,1.498-2.197,3.79-2.055,5.816h-6.617c-0.289-5.032-2.438-7.816-6.197-8.188
		c-4.209-0.417-6.615,1.654-8.082,6.795c-2.379,0.171-4.682,0.337-7.168,0.515c-1.234-4.36-3.07-6.122-6.184-5.835
		c-2.617,0.24-4.602,2.127-4.973,4.733c-0.461,3.218,1.07,4.901,5.686,6.488v7.842c-3.736,0.545-6.404,2.341-6.547,6.235
		c-0.16,4.314,2.74,6.212,6.381,6.836v7.065c-3.467,0.508-6.111,2.213-6.367,6.009c-0.287,4.201,2.422,6.216,6.131,7.039
		c-0.131,1.321-0.34,2.445-0.326,3.567c0.016,1.188,0.24,2.374,0.375,3.559c-4.598,1.12-6.461,2.942-6.492,6.347
		c-0.033,3.441,1.719,5.21,6.314,6.495v7.355c-4.248,0.797-6.324,2.866-6.314,6.361c0.01,3.467,2.012,5.449,6.434,6.362v7.885
		c-4.018,0.647-6.115,2.736-5.961,6.149c0.127,2.836,2.438,5.204,5.26,5.392c3.43,0.227,5.498-1.811,6.336-6.128
		c2.123,0.227,4.232,0.45,6.373,0.68c2.596,6.386,6.064,8.591,10.658,6.724c4.332-1.76,5.676-5.962,3.598-11.246
		c5.105,1.515,8.732,0.257,9.813-3.73c0.406-1.498,0.262-3.382-0.283-4.848c-0.992-2.663-3.424-3.716-6.115-3.911
		c0.117-1.299,0.289-2.357,0.287-3.416c-0.002-1.056-0.178-2.111-0.277-3.16c4.768-1.238,6.822-3.16,6.717-6.659
		c-0.041-1.333-0.346-3.026-1.201-3.883c-1.463-1.471-3.457-2.41-5.385-3.675v-5.983c4.354-0.84,6.553-2.996,6.641-6.505
		c0.092-3.747-1.85-5.779-6.633-7.025v-5.888c2.777-0.062,4.963-1.028,6.523-3.19c1.553-2.147,1.482-4.563,0.957-7.208
		c2.736,0.953,5.123,0.71,7.34-0.755c2.215-1.465,3.137-3.718,3.535-6.274h4.758c1.471,5.251,4.502,7.943,8.494,7.096
		c1.602-0.34,3.273-1.288,4.459-2.43c2.145-2.064,2.209-4.838,1.412-7.695c6.426,2.039,10.541-2.258,10.732-6.07
		c0.092-1.86-0.502-4.051-1.525-5.606c-2.104-3.204-5.506-3.537-9.1-2.651C566.711,52.201,564.57,48.289,560.338,47.29
		 M572.75,44.575c0.1-2.076-1.703-4.046-3.82-4.18c-2.072-0.131-4.061,1.641-4.229,3.765c-0.168,2.146,1.721,4.214,3.912,4.285
		C570.695,48.514,572.648,46.686,572.75,44.575 M583.936,54.467c-0.006-2.744-2.365-5.121-5.115-5.151
		c-2.734-0.031-5.135,2.307-5.203,5.063c-0.064,2.8,2.41,5.292,5.217,5.252C581.584,59.591,583.939,57.208,583.936,54.467
		 M586.34,65.628c0.078-1.083-0.621-1.675-1.67-1.879c-1.055,0.114-1.768,0.664-1.799,1.744c-0.029,1.009,0.607,1.684,1.598,1.763
		C585.551,67.342,586.266,66.686,586.34,65.628"/>
	<path clip-path="url(#SVGID_2_)" fill="#3C8F6C" d="M343.548,137.584c3.389,0,6.134-2.745,6.134-6.132
		c0-3.386-2.745-6.132-6.134-6.132c-3.387,0-6.132,2.746-6.132,6.132C337.417,134.839,340.162,137.584,343.548,137.584"/>
	<path clip-path="url(#SVGID_2_)" fill="#3C8F6C" d="M332.121,137.584c2.926,0,5.297-2.371,5.297-5.296s-2.371-5.297-5.297-5.297
		c-2.925,0-5.296,2.372-5.296,5.297S329.196,137.584,332.121,137.584"/>
	<path clip-path="url(#SVGID_2_)" fill="#3C8F6C" d="M340.602,131.452c5.596,0,10.131-4.535,10.131-10.13
		c0-5.594-4.535-10.13-10.131-10.13c-5.595,0-10.13,4.536-10.13,10.13C330.472,126.917,335.007,131.452,340.602,131.452"/>
	<path clip-path="url(#SVGID_2_)" fill="#3C8F6C" d="M340.602,124.724c5.596,0,10.131-4.535,10.131-10.13
		c0-5.594-4.535-10.13-10.131-10.13c-5.595,0-10.13,4.536-10.13,10.13C330.472,120.188,335.007,124.724,340.602,124.724"/>
</g>
</svg>
