<?xml version="1.0" standalone="no"?>
<!DOCTYPE svg PUBLIC "-//W3C//DTD SVG 20010904//EN"
 "http://www.w3.org/TR/2001/REC-SVG-20010904/DTD/svg10.dtd">
<svg version="1.0" xmlns="http://www.w3.org/2000/svg"
 width="256.000000pt" height="256.000000pt" viewBox="0 0 256.000000 256.000000"
 preserveAspectRatio="xMidYMid meet">
<metadata>
Created by potrace 1.11, written by Peter Selinger 2001-2013
</metadata>
<g transform="translate(0.000000,256.000000) scale(0.100000,-0.100000)"
fill="#000000" stroke="none">
<path d="M1327 2319 c-30 -17 -39 -55 -22 -94 7 -19 20 -36 27 -36 7 -1 23 -3
36 -4 36 -4 72 31 72 69 0 58 -63 94 -113 65z"/>
<path d="M1006 2294 c-24 -24 -20 -61 9 -80 23 -15 27 -15 50 0 46 30 26 96
-29 96 -8 0 -22 -7 -30 -16z"/>
<path d="M1508 2220 c-65 -12 -113 -76 -102 -136 8 -42 8 -57 -1 -76 -4 -12 1
-25 19 -43 33 -33 33 -65 1 -95 -40 -38 -54 -133 -24 -164 21 -22 9 -35 -26
-29 -68 11 -113 -69 -65 -117 50 -50 143 4 119 68 -13 34 -6 37 35 18 19 -9
47 -16 63 -16 23 0 29 -4 30 -22 0 -13 3 -35 7 -49 7 -24 5 -26 -17 -22 -26 5
-75 -30 -78 -57 -7 -62 22 -100 74 -100 50 1 95 49 82 90 -5 17 -3 18 30 8 28
-9 35 -16 35 -38 0 -21 -7 -29 -35 -39 -103 -37 -110 -169 -11 -224 58 -32 58
-73 0 -91 -16 -5 -21 -2 -21 11 0 43 -4 53 -28 69 -38 25 -75 21 -102 -10 -13
-15 -23 -38 -23 -50 0 -36 37 -76 69 -76 27 0 28 -1 21 -45 -4 -25 -6 -48 -6
-52 1 -3 -17 -8 -38 -10 -63 -5 -115 -51 -118 -104 -2 -50 3 -67 32 -110 39
-58 39 -94 -1 -135 -43 -45 -52 -118 -19 -163 30 -43 66 -59 123 -56 56 3 82
22 108 81 16 35 23 41 46 39 16 -1 38 2 50 6 18 7 23 3 34 -24 27 -71 90 -87
140 -38 48 48 35 106 -30 136 -34 15 -40 22 -35 39 8 29 24 44 54 51 22 5 27
2 35 -26 6 -18 22 -41 37 -52 24 -18 32 -19 67 -8 46 13 61 34 61 85 0 39 -28
73 -68 83 -15 3 -21 11 -18 20 3 8 6 31 6 52 0 33 4 38 35 49 50 19 85 65 85
114 0 51 -27 89 -80 113 -36 16 -41 22 -38 48 2 24 10 31 43 43 59 20 85 55
85 113 0 62 -31 110 -85 131 -39 15 -43 22 -36 68 0 5 19 16 41 26 51 22 73
55 72 105 -1 52 -23 84 -75 107 -23 10 -43 19 -45 20 -9 5 -24 125 -15 123 51
-9 93 24 93 74 0 41 -35 77 -74 77 -37 0 -87 -49 -81 -80 4 -21 2 -22 -33 -15
-20 4 -40 9 -44 12 -10 5 -33 50 -42 79 -6 18 -3 20 24 16 82 -12 118 99 45
138 -27 14 -78 6 -96 -17 -7 -8 -12 -30 -12 -49 1 -19 0 -34 -2 -34 -2 0 -16
5 -31 10 -15 6 -42 11 -61 12 -30 1 -38 8 -34 31 2 13 -26 61 -45 79 -29 26
-65 35 -106 28z"/>
<path d="M1163 2208 c-38 -10 -83 -61 -83 -94 0 -16 -6 -24 -17 -25 -10 0 -37
-2 -60 -5 -39 -5 -41 -4 -48 24 -22 102 -172 78 -163 -26 3 -37 36 -71 74 -76
20 -3 29 -33 16 -54 -5 -7 -23 -17 -41 -22 -31 -9 -33 -7 -47 25 -29 69 -95
86 -145 36 -21 -22 -29 -39 -29 -66 0 -52 46 -94 93 -86 5 1 5 -20 1 -46 -3
-27 -7 -48 -8 -48 0 0 -23 -11 -49 -23 -104 -49 -102 -169 4 -226 57 -32 62
-52 17 -64 -32 -8 -33 -8 -41 29 -16 75 -89 101 -146 53 -35 -29 -40 -67 -16
-114 14 -27 53 -47 80 -42 6 1 11 -27 11 -72 1 -71 0 -73 -24 -73 -43 0 -77
-35 -80 -82 -3 -35 2 -46 26 -70 24 -24 36 -29 69 -26 l40 3 -14 -40 c-20 -59
-3 -102 54 -139 25 -15 50 -30 56 -32 5 -1 11 -24 13 -49 4 -45 3 -47 -31 -58
-98 -32 -69 -170 36 -170 45 0 89 34 89 70 0 14 6 20 23 20 30 0 43 -10 50
-42 6 -23 3 -27 -25 -37 -49 -17 -68 -40 -68 -80 0 -102 138 -129 172 -34 12
33 14 34 57 31 42 -3 47 -6 66 -43 28 -55 74 -84 129 -80 54 3 78 16 111 59
17 22 25 46 25 71 0 31 6 43 36 69 29 25 36 38 36 67 0 20 -6 47 -13 60 -8 13
-14 41 -15 62 -2 40 -27 77 -51 77 -7 0 -17 10 -22 23 -7 18 -5 23 13 27 11 3
27 18 35 32 29 52 -23 101 -79 75 -15 -7 -26 -22 -28 -37 -3 -23 -6 -25 -42
-22 -36 4 -40 7 -40 31 0 43 -42 104 -88 129 -36 20 -42 28 -42 57 0 25 5 34
23 39 32 8 37 7 32 -6 -12 -35 57 -74 96 -54 55 27 47 111 -11 122 -28 6 -30
10 -30 50 0 37 3 44 19 44 24 0 61 45 61 74 0 31 -36 66 -68 66 -38 0 -72 -26
-72 -56 0 -25 -7 -28 -34 -18 -10 4 -16 18 -16 39 0 28 5 34 39 50 55 24 80
54 89 105 7 41 9 43 65 60 32 10 64 24 73 31 25 20 46 69 46 105 0 18 7 39 16
46 41 34 46 109 10 148 -11 11 -18 28 -15 38 4 20 -19 72 -33 72 -6 0 -10 11
-10 24 0 28 -42 82 -70 91 -35 11 -55 12 -87 3z"/>
<path d="M505 1816 c-14 -14 -25 -34 -25 -46 0 -25 42 -70 61 -66 54 9 76 35
70 81 -7 51 -68 69 -106 31z"/>
<path d="M2151 1809 c-12 -11 -21 -28 -21 -38 0 -40 69 -68 98 -39 7 7 12 24
12 39 0 48 -53 71 -89 38z"/>
<path d="M2138 1510 c-67 -52 -22 -148 67 -142 11 0 31 13 44 28 63 74 -35
174 -111 114z"/>
<path d="M357 1353 c-4 -3 -7 -14 -7 -24 0 -24 30 -33 49 -14 15 15 14 18 -3
31 -22 16 -30 17 -39 7z"/>
<path d="M2133 1192 c-48 -38 -49 -103 -1 -136 55 -39 131 1 131 69 0 69 -77
109 -130 67z"/>
<path d="M330 1008 c-25 -27 -26 -59 -2 -87 37 -44 103 -27 117 31 5 21 1 33
-19 52 -31 32 -69 33 -96 4z"/>
<path d="M495 846 c-61 -61 28 -155 91 -95 43 41 24 103 -34 115 -25 5 -36 1
-57 -20z"/>
<path d="M2137 842 c-22 -24 -21 -65 1 -85 40 -36 102 -9 102 45 0 51 -69 78
-103 40z"/>
<path d="M1306 378 c-42 -37 -34 -112 14 -138 34 -18 70 -11 102 20 25 26 29
36 24 63 -8 40 -48 77 -86 77 -16 0 -40 -10 -54 -22z"/>
<path d="M990 360 c-27 -27 -26 -75 2 -94 31 -22 64 -20 88 4 26 26 25 60 0
88 -26 27 -64 28 -90 2z"/>
<path d="M1653 365 c-32 -23 -32 -79 1 -100 43 -29 96 0 96 52 0 47 -58 75
-97 48z"/>
</g>
</svg>
