<?xml version="1.0" encoding="utf-8"?>
<!-- Generator: Adobe Illustrator 16.0.0, SVG Export Plug-In . SVG Version: 6.00 Build 0)  -->
<!DOCTYPE svg PUBLIC "-//W3C//DTD SVG 1.1//EN" "http://www.w3.org/Graphics/SVG/1.1/DTD/svg11.dtd">
<svg version="1.1" id="Capa_1" xmlns="http://www.w3.org/2000/svg" xmlns:xlink="http://www.w3.org/1999/xlink" x="0px" y="0px"
	 width="595.275px" height="595.275px" viewBox="123.307 0.002 595.275 595.275"
	 enable-background="new 123.307 0.002 595.275 595.275" xml:space="preserve">
<g>
	<path fill="#3C8F6B" d="M628.91,379.373v135.982H212.96V379.373h-79.945v175.955c0,22.061,17.872,39.953,40.032,39.953h495.775
		c22.143,0,40.033-17.871,40.033-39.953V379.373H628.91z"/>
	<path fill="#3C8F6B" d="M413.618,365.89L299.16,227.584c0,0-17.415-16.442,1.47-16.442s64.496,0,64.496,0s0-11.061,0-28.118
		c0-48.631,0-137.134,0-173.215c0,0-2.562-9.81,12.212-9.81c14.893,0,80.124,0,90.788,0c10.643,0,10.404,8.261,10.404,8.261
		c0,34.988,0,126.55,0,173.592c0,15.25,0,25.139,0,25.139s36.576,0,59.531,0c22.916,0,5.66,17.216,5.66,17.216
		s-97.381,129.27-110.963,142.833C422.99,376.871,413.618,365.89,413.618,365.89z"/>
</g>
</svg>
