<?xml version="1.0" encoding="utf-8"?>
<!-- Generator: Adobe Illustrator 16.0.0, SVG Export Plug-In . SVG Version: 6.00 Build 0)  -->
<!DOCTYPE svg PUBLIC "-//W3C//DTD SVG 1.1//EN" "http://www.w3.org/Graphics/SVG/1.1/DTD/svg11.dtd">
<svg version="1.1" id="Vrstva_1" xmlns="http://www.w3.org/2000/svg" xmlns:xlink="http://www.w3.org/1999/xlink" x="0px" y="0px"
	 width="53.803px" height="51.986px" viewBox="0 0 53.803 51.986" enable-background="new 0 0 53.803 51.986" xml:space="preserve">
<path fill="#3C8F6B" d="M53.378,40.382c0,0.859-0.19,1.623-0.857,2.298l-7.456,7.264c-0.29,0.479-0.768,0.765-1.34,1.052
	c-0.479,0.285-1.052,0.382-1.531,0.479c0,0-0.188,0-0.281,0.096c-0.289,0-0.479,0-0.77,0c-0.766,0-1.813-0.189-3.438-0.382
	c-1.624-0.286-3.637-0.858-5.929-1.816c-2.196-0.856-4.876-2.388-7.738-4.301c-2.868-1.813-6.022-4.491-9.271-7.741
	c-2.678-2.678-4.782-5.063-6.5-7.455c-1.719-2.392-3.155-4.492-4.205-6.597c-1.052-1.91-1.813-3.729-2.296-5.354
	c-0.572-1.626-0.858-3.06-1.146-4.205c-0.099-1.146-0.19-2.104-0.19-2.771C0.526,10.276,0.526,9.894,0.526,9.8
	C0.617,9.224,0.712,8.745,1,8.269c0.284-0.576,0.568-1.055,0.952-1.34c17.775-17.779,18.826,6.306,16.821,8.313l-2.771,2.771
	c-0.096,0.096-0.096,0.188-0.19,0.382c-0.097,0.188-0.097,0.286-0.097,0.381c0.191,0.765,0.479,1.72,1.055,2.679
	c0.479,0.858,1.146,2.006,2.006,3.346c0.954,1.241,2.299,2.677,4.018,4.396c1.723,1.719,3.151,3.059,4.491,4.014
	s2.391,1.623,3.251,2.104c0.957,0.479,1.527,0.668,2.008,0.765l0.766,0.189c0,0,0.189,0,0.285-0.098
	c0.286-0.096,0.286-0.188,0.383-0.188C41.619,28.244,52.61,37.131,53.378,40.382L53.378,40.382z"/>
</svg>
