<?xml version="1.0" encoding="utf-8"?>
<!-- Generator: Adobe Illustrator 16.0.0, SVG Export Plug-In . SVG Version: 6.00 Build 0)  -->
<!DOCTYPE svg PUBLIC "-//W3C//DTD SVG 1.1//EN" "http://www.w3.org/Graphics/SVG/1.1/DTD/svg11.dtd">
<svg version="1.1" id="Vrstva_1" xmlns="http://www.w3.org/2000/svg" xmlns:xlink="http://www.w3.org/1999/xlink" x="0px" y="0px"
	 width="44.744px" height="42.976px" viewBox="0 0 44.744 42.976" enable-background="new 0 0 44.744 42.976" xml:space="preserve">
<g>
	<path fill="#3B8F6B" d="M19.131,42.976c-0.889,0-1.788-0.063-2.674-0.188C6.086,41.33-1.169,31.735,0.283,21.399
		c1.306-9.287,9.374-16.29,18.769-16.29c0.842,0,1.694,0.057,2.535,0.169C24.107,1.969,28.02,0,32.092,0
		c2.678,0,5.221,0.835,7.354,2.414c5.529,4.091,6.642,12.028,2.549,17.82c1.488,1.401,2.408,3.22,2.672,5.255
		c0.31,2.384-0.321,4.779-1.776,6.745c-1.751,2.366-4.522,3.779-7.413,3.779l0,0c-0.522,0-1.042-0.045-1.553-0.136
		C30.34,40.334,24.859,42.976,19.131,42.976z M19.052,7.135c-8.392,0-15.598,6.253-16.763,14.546
		c-1.298,9.23,5.185,17.8,14.449,19.102c6.098,0.855,12.303-1.738,15.968-6.636c0.246-0.329,0.666-0.477,1.064-0.374
		c0.554,0.144,1.128,0.217,1.707,0.217c2.252,0,4.414-1.106,5.786-2.96c1.141-1.542,1.637-3.418,1.396-5.28
		c-0.239-1.848-1.178-3.461-2.642-4.543c-0.223-0.166-0.381-0.423-0.415-0.698c-0.033-0.276,0.035-0.562,0.212-0.775l0.136-0.163
		c0.082-0.097,0.165-0.193,0.242-0.297c3.634-4.912,2.76-11.746-1.951-15.231c-1.782-1.318-3.908-2.016-6.149-2.016
		c-3.494,0-6.854,1.721-8.987,4.604c-0.035,0.048-0.068,0.101-0.102,0.152l-0.121,0.184c-0.223,0.32-0.613,0.479-0.993,0.423
		c-0.089-0.015-0.175-0.032-0.262-0.051c-0.061-0.013-0.121-0.026-0.185-0.035C20.651,7.191,19.846,7.135,19.052,7.135z"/>
</g>
<path fill="#3B8F6B" d="M8.633,31.604c0-0.461,0.372-0.834,0.834-0.834c0.461,0,0.834,0.373,0.834,0.834s-0.373,0.834-0.834,0.834
	C9.005,32.438,8.633,32.065,8.633,31.604"/>
<path fill="#3B8F6B" d="M7.798,24.098c0-0.461,0.373-0.834,0.834-0.834s0.834,0.373,0.834,0.834s-0.373,0.834-0.834,0.834
	S7.798,24.559,7.798,24.098"/>
<path fill="#3B8F6B" d="M7.798,15.757c0-0.461,0.373-0.834,0.834-0.834s0.834,0.373,0.834,0.834s-0.373,0.834-0.834,0.834
	S7.798,16.218,7.798,15.757"/>
<path fill="#3B8F6B" d="M13.637,32.438c0-0.461,0.373-0.834,0.834-0.834s0.834,0.373,0.834,0.834s-0.373,0.834-0.834,0.834
	S13.637,32.899,13.637,32.438"/>
<path fill="#3B8F6B" d="M13.637,24.098c0-0.461,0.373-0.834,0.834-0.834s0.834,0.373,0.834,0.834s-0.373,0.834-0.834,0.834
	S13.637,24.559,13.637,24.098"/>
<path fill="#3B8F6B" d="M13.637,14.923c0-0.461,0.373-0.834,0.834-0.834s0.834,0.373,0.834,0.834s-0.373,0.834-0.834,0.834
	S13.637,15.384,13.637,14.923"/>
<path fill="#3B8F6B" d="M11.969,28.268c0-0.461,0.373-0.834,0.834-0.834s0.834,0.373,0.834,0.834c0,0.462-0.373,0.834-0.834,0.834
	S11.969,28.729,11.969,28.268"/>
<path fill="#3B8F6B" d="M11.52,18.545c0-0.462,0.372-0.834,0.834-0.834c0.461,0,0.834,0.372,0.834,0.834
	c0,0.461-0.373,0.834-0.834,0.834C11.892,19.379,11.52,19.006,11.52,18.545"/>
<path fill="#3B8F6B" d="M29.78,10.757c-0.737,1.188-2.124,1.509-3.307,0.765c-1.181-0.743-1.503-2.141-0.766-3.328
	c0.735-1.188,4.999-3.494,4.999-3.494S30.517,9.568,29.78,10.757"/>
<path fill="#3B8F6B" d="M29.534,20.498c-0.717,1.155-2.066,1.468-3.215,0.744c-1.149-0.723-1.462-2.082-0.745-3.236
	c0.716-1.155,4.86-3.398,4.86-3.398S30.251,19.344,29.534,20.498"/>
<path fill="#3B8F6B" d="M28.714,31.84c-0.913,1.473-2.633,1.87-4.098,0.948c-1.464-0.921-1.862-2.653-0.949-4.125
	s6.194-4.331,6.194-4.331S29.627,30.368,28.714,31.84"/>
<path fill="#3B8F6B" d="M38.617,29.612c-0.819,1.32-2.361,1.677-3.673,0.851c-1.313-0.826-1.672-2.378-0.853-3.698
	s5.555-3.883,5.555-3.883S39.436,28.293,38.617,29.612"/>
<path fill="#3B8F6B" d="M38.363,17.341c-0.969,1.563-2.795,1.986-4.35,1.007c-1.556-0.979-1.979-2.816-1.009-4.38
	c0.97-1.563,6.577-4.598,6.577-4.598S39.333,15.778,38.363,17.341"/>
<g>
	<rect x="20.503" y="6.082" fill="#3B8F6B" width="1" height="35.53"/>
</g>
<path fill="#3B8F6B" d="M5.463,27.768c0-0.461,0.373-0.834,0.834-0.834s0.834,0.373,0.834,0.834s-0.373,0.834-0.834,0.834
	S5.463,28.229,5.463,27.768"/>
<path fill="#3B8F6B" d="M5.63,20.261c0-0.461,0.373-0.834,0.834-0.834s0.834,0.373,0.834,0.834s-0.373,0.834-0.834,0.834
	S5.63,20.722,5.63,20.261"/>
<g>
	<rect x="17.44" y="6.082" fill="#3B8F6B" width="1" height="35.531"/>
</g>
</svg>
