<?xml version="1.0" encoding="utf-8"?>
<!-- Generator: Adobe Illustrator 16.0.0, SVG Export Plug-In . SVG Version: 6.00 Build 0)  -->
<!DOCTYPE svg PUBLIC "-//W3C//DTD SVG 1.1//EN" "http://www.w3.org/Graphics/SVG/1.1/DTD/svg11.dtd">
<svg version="1.1" id="Layer_1" xmlns="http://www.w3.org/2000/svg" xmlns:xlink="http://www.w3.org/1999/xlink" x="0px" y="0px"
	 width="520.869px" height="595.281px" viewBox="160.509 0 520.869 595.281" enable-background="new 160.509 0 520.869 595.281"
	 xml:space="preserve">
<g>
	<path fill="#E2574C" d="M197.714,0h316.112l167.553,166.902v391.173c0,20.555-16.666,37.205-37.205,37.205H197.714
		c-20.538,0-37.205-16.65-37.205-37.205V37.205C160.509,16.649,177.178,0,197.714,0z"/>
	<path fill="#B53629" d="M680.841,167.422H551.164c-20.539,0-37.205-16.667-37.205-37.205V0.372L680.841,167.422z"/>
	<path fill="#FFFFFF" d="M541.824,282.069c6.232,0,9.283-5.432,9.283-10.696c0-5.451-3.182-10.715-9.283-10.715H506.33
		c-6.938,0-10.807,5.748-10.807,12.092v87.227c0,7.775,4.426,12.092,10.416,12.092c5.953,0,10.4-4.316,10.4-12.092v-23.941h21.467
		c6.66,0,9.99-5.451,9.99-10.863c0-5.301-3.33-10.566-9.99-10.566h-21.467v-32.536H541.824z M421.857,260.658h-25.97
		c-7.051,0-12.055,4.837-12.055,12.017v87.376c0,8.91,7.199,11.701,12.352,11.701h27.254c32.256,0,53.555-21.225,53.555-53.984
		C476.974,283.13,456.923,260.658,421.857,260.658z M423.103,350.212h-15.831V282.2h14.269c21.598,0,30.992,14.492,30.992,34.489
		C452.533,335.404,443.304,350.212,423.103,350.212z M327.97,260.658h-25.727c-7.274,0-11.33,4.799-11.33,12.092v87.227
		c0,7.775,4.65,12.092,10.9,12.092s10.9-4.316,10.9-12.092v-25.467h16.128c19.904,0,36.331-14.102,36.331-36.778
		C365.174,275.541,349.326,260.658,327.97,260.658z M327.542,314.048h-14.827V281.14h14.827c9.152,0,14.975,7.143,14.975,16.463
		C342.498,306.906,336.695,314.048,327.542,314.048z"/>
</g>
</svg>
