<?xml version="1.0" encoding="utf-8"?>
<!-- Generator: Adobe Illustrator 16.0.0, SVG Export Plug-In . SVG Version: 6.00 Build 0)  -->
<!DOCTYPE svg PUBLIC "-//W3C//DTD SVG 1.1//EN" "http://www.w3.org/Graphics/SVG/1.1/DTD/svg11.dtd">
<svg version="1.1" id="Vrstva_1" xmlns="http://www.w3.org/2000/svg" xmlns:xlink="http://www.w3.org/1999/xlink" x="0px" y="0px"
	 width="42.75px" height="49px" viewBox="0 0 42.75 49" enable-background="new 0 0 42.75 49" xml:space="preserve">
<path fill="#3B8F6B" d="M29.633,39.381c10.012-4.458,14.528-16.158,10.087-26.133C35.277,3.272,23.561-1.201,13.55,3.257"/>
<polygon fill="#3B8F6B" points="12.909,3.847 28.507,38.899 30.027,38.224 14.638,3.328 "/>
<g>
	<path fill="#3B8F6B" d="M13.331,48.777C13.331,48.777,13.331,48.777,13.331,48.777c-2.198,0-4.383-0.748-6.153-2.105
		c-2.093-1.605-3.461-3.9-3.851-6.461c-0.355-2.331,0.136-4.628,1.387-6.548c-0.909-1.23-1.667-2.52-2.255-3.842
		C0.19,24.729,0.049,19.058,2.06,13.851c2.011-5.206,5.932-9.326,11.042-11.6c2.714-1.208,5.584-1.82,8.531-1.82
		c8.251,0,15.745,4.852,19.091,12.362c2.268,5.09,2.409,10.762,0.398,15.969c-2.011,5.206-5.932,9.326-11.042,11.6
		c-2.447,1.089-5.042,1.69-7.726,1.791c-0.322,1.094-0.825,2.091-1.5,2.971C19.071,47.445,16.329,48.777,13.331,48.777z
		 M21.633,2.456c-2.661,0-5.254,0.553-7.708,1.645C9.308,6.156,5.765,9.877,3.949,14.58c-1.816,4.701-1.688,9.821,0.358,14.416
		c0.619,1.389,1.446,2.741,2.46,4.019L7.311,33.7l-0.597,0.637c-1.192,1.552-1.693,3.542-1.385,5.569
		c0.311,2.042,1.405,3.874,3.082,5.159c1.439,1.104,3.141,1.688,4.92,1.688c2.364,0,4.521-1.043,5.917-2.862
		c0.647-0.843,1.092-1.833,1.321-2.94l0.167-0.807l0.824-0.001c2.679-0.002,5.269-0.551,7.696-1.631
		c4.617-2.055,8.16-5.776,9.976-10.479c1.816-4.701,1.688-9.821-0.358-14.416C35.853,6.837,29.085,2.456,21.633,2.456z"/>
</g>
<g>
	<path fill="#3B8F6B" d="M13.275,43.09c-2.658,0-4.82-2.148-4.82-4.79c0-1.425,0.621-2.743,1.714-3.656V18.697
		c0-1.702,1.394-3.087,3.106-3.087s3.107,1.385,3.107,3.087v15.947c1.093,0.914,1.714,2.231,1.714,3.656
		C18.096,40.942,15.934,43.09,13.275,43.09z M13.275,16.681c-1.122,0-2.035,0.904-2.035,2.016v16.206
		c0,0.169-0.08,0.328-0.215,0.429c-0.952,0.711-1.499,1.793-1.499,2.968c0,2.05,1.682,3.718,3.749,3.718s3.75-1.668,3.75-3.718
		c0-1.175-0.546-2.257-1.499-2.968c-0.136-0.101-0.215-0.26-0.215-0.429V18.697C15.311,17.585,14.398,16.681,13.275,16.681z
		 M13.275,40.112c-1.003,0-1.82-0.813-1.82-1.811c0-0.813,0.542-1.504,1.285-1.732V23.802c0-0.296,0.24-0.536,0.536-0.536
		s0.536,0.24,0.536,0.536v12.767c0.743,0.228,1.285,0.918,1.285,1.732C15.096,39.299,14.279,40.112,13.275,40.112z M13.275,37.56
		c-0.413,0-0.749,0.332-0.749,0.741c0,0.408,0.336,0.74,0.749,0.74c0.414,0,0.75-0.332,0.75-0.74
		C14.025,37.892,13.689,37.56,13.275,37.56z"/>
</g>
<g>
	<defs>
		<path id="SVGID_1_" d="M39.72,13.248C35.277,3.272,23.561-1.201,13.55,3.257l0.156,0.351l-0.797,0.239l15.599,35.053l0.761-0.338
			l0.365,0.819C39.645,34.923,44.161,23.223,39.72,13.248z"/>
	</defs>
	<clipPath id="SVGID_2_">
		<use xlink:href="#SVGID_1_"  overflow="visible"/>
	</clipPath>
	<g clip-path="url(#SVGID_2_)">
		<g>
			<g>
				<path fill="#FFFFFF" d="M16.089,23.019c1.122,0.963,2.394,2.054,4.854,2.054s3.732-1.091,4.855-2.054
					c1.061-0.91,1.978-1.696,3.89-1.696c1.912,0,2.829,0.786,3.89,1.696c0.311,0.267,0.779,0.231,1.045-0.08
					c0.266-0.311,0.23-0.778-0.081-1.045c-1.122-0.963-2.394-2.054-4.855-2.054c-2.46,0-3.732,1.091-4.855,2.054
					c-1.061,0.91-1.978,1.697-3.89,1.697s-2.829-0.787-3.89-1.697c-0.311-0.267-0.778-0.231-1.045,0.08
					C15.743,22.284,15.778,22.752,16.089,23.019z"/>
				<path fill="#FFFFFF" d="M16.089,18.965c1.122,0.963,2.394,2.055,4.854,2.055s3.732-1.092,4.855-2.055
					c1.061-0.91,1.978-1.696,3.89-1.696c1.912,0,2.829,0.786,3.89,1.696c0.311,0.267,0.778,0.231,1.045-0.08
					c0.266-0.311,0.23-0.778-0.081-1.045c-1.123-0.963-2.394-2.054-4.855-2.054c-2.46,0-3.732,1.091-4.855,2.054
					c-1.061,0.911-1.978,1.697-3.89,1.697s-2.829-0.786-3.89-1.697c-0.311-0.266-0.779-0.23-1.045,0.08
					C15.743,18.23,15.778,18.699,16.089,18.965z"/>
				<path fill="#FFFFFF" d="M16.089,14.965c1.122,0.963,2.394,2.055,4.854,2.055s3.732-1.092,4.855-2.055
					c1.061-0.91,1.978-1.696,3.89-1.696c1.912,0,2.829,0.786,3.89,1.696c0.311,0.267,0.778,0.231,1.045-0.08
					c0.266-0.311,0.23-0.778-0.081-1.045c-1.123-0.963-2.394-2.054-4.855-2.054c-2.46,0-3.732,1.091-4.855,2.054
					c-1.061,0.911-1.978,1.697-3.89,1.697s-2.829-0.786-3.89-1.697c-0.311-0.266-0.779-0.23-1.045,0.08
					C15.743,14.23,15.778,14.699,16.089,14.965z"/>
				<path fill="#FFFFFF" d="M34.543,25.947c-1.122-0.963-2.394-2.055-4.855-2.055c-2.46,0-3.732,1.092-4.855,2.055
					c-1.061,0.91-1.978,1.697-3.89,1.697s-2.829-0.787-3.89-1.697l0,0c-0.311-0.267-0.778-0.231-1.045,0.08
					c-0.266,0.311-0.23,0.778,0.081,1.045c1.122,0.963,2.394,2.054,4.854,2.054s3.732-1.091,4.855-2.054
					c1.061-0.911,1.978-1.696,3.89-1.696c1.912,0,2.829,0.785,3.89,1.696c0.311,0.266,0.779,0.23,1.045-0.08
					C34.89,26.682,34.854,26.213,34.543,25.947z"/>
			</g>
		</g>
	</g>
</g>
</svg>
