<?xml version="1.0" encoding="utf-8"?>
<!-- Generator: Adobe Illustrator 16.0.0, SVG Export Plug-In . SVG Version: 6.00 Build 0)  -->
<!DOCTYPE svg PUBLIC "-//W3C//DTD SVG 1.1//EN" "http://www.w3.org/Graphics/SVG/1.1/DTD/svg11.dtd">
<svg version="1.1" id="Vrstva_1" xmlns="http://www.w3.org/2000/svg" xmlns:xlink="http://www.w3.org/1999/xlink" x="0px" y="0px"
	 width="42.457px" height="41.25px" viewBox="0 0 42.457 41.25" enable-background="new 0 0 42.457 41.25" xml:space="preserve">
<g>
	<g>
		<path fill="#3B8F6B" d="M30.78,41.25L30.78,41.25c-0.146,0-0.294-0.003-0.44-0.008c-1.578-0.058-3.103-0.432-4.538-1.111
			c-2.012,0.55-4.061,0.792-6.128,0.716c-5.454-0.202-10.502-2.516-14.215-6.515c-3.713-3.999-5.646-9.204-5.444-14.657
			C0.433,8.388,9.821-0.42,21.185,0.016C26.639,0.217,31.687,2.531,35.4,6.529s5.646,9.204,5.444,14.658
			c-0.024,0.664-0.091,1.351-0.206,2.137c1.273,2.005,1.898,4.303,1.811,6.673C42.214,36.307,37.088,41.25,30.78,41.25z
			 M26.003,37.964l0.36,0.186c1.274,0.656,2.637,1.016,4.05,1.068c5.41,0.184,9.813-3.958,10.012-9.295
			c0.076-2.069-0.506-4.073-1.684-5.795l-0.228-0.333l0.063-0.399c0.141-0.87,0.218-1.595,0.243-2.283
			c0.182-4.913-1.56-9.602-4.904-13.205c-3.346-3.603-7.894-5.687-12.806-5.868C10.874,1.689,2.416,9.581,2.038,19.75
			c-0.182,4.913,1.56,9.602,4.904,13.205c3.346,3.603,7.894,5.687,12.806,5.869c1.971,0.074,3.943-0.18,5.866-0.745L26.003,37.964z"
			/>
	</g>
	<g>
		<path fill="#3B8F6B" d="M13.669,13.207v-3.136c0-0.433,0.351-0.784,0.784-0.784s0.784,0.351,0.784,0.784v3.136
			c0,0.433-0.351,0.784-0.784,0.784S13.669,13.64,13.669,13.207z M26.997,13.99c0.433,0,0.784-0.351,0.784-0.784v-3.136
			c0-0.433-0.352-0.784-0.784-0.784c-0.434,0-0.784,0.351-0.784,0.784v3.136C26.212,13.64,26.563,13.99,26.997,13.99z
			 M35.619,28.101c0,3.463-2.807,6.271-6.271,6.271s-6.271-2.808-6.271-6.271c0-3.463,2.808-6.271,6.271-6.271
			S35.619,24.637,35.619,28.101z M34.051,28.101c0-2.593-2.109-4.704-4.703-4.704c-2.595,0-4.703,2.11-4.703,4.704
			s2.108,4.703,4.703,4.703C31.942,32.804,34.051,30.694,34.051,28.101z M16.805,18.694h-3.136v3.135h3.136V18.694z M13.669,26.533
			h3.136v-3.136h-3.136V26.533z M18.374,21.829h3.136v-3.135h-3.136V21.829z M18.374,26.533h3.136v-3.136h-3.136V26.533z
			 M12.102,27.944V17.126h17.246v3.136h1.567v-6.115c0-0.953-0.76-1.725-1.698-1.725h-0.653v0.784c0,0.864-0.703,1.568-1.567,1.568
			s-1.568-0.704-1.568-1.568v-0.784h-9.406v0.784c0,0.864-0.704,1.568-1.568,1.568s-1.567-0.704-1.567-1.568v-0.784h-0.652
			c-0.938,0-1.699,0.772-1.699,1.725v13.797c0,0.95,0.761,1.724,1.699,1.724h9.275v-1.568h-9.275
			C12.163,28.101,12.102,28.027,12.102,27.944z M26.212,21.829v-3.135h-3.136v3.135H26.212z M31.7,28.101h-2.352v-2.352
			c0-0.433-0.351-0.784-0.784-0.784s-0.783,0.351-0.783,0.784v3.136c0,0.433,0.35,0.784,0.783,0.784H31.7
			c0.434,0,0.784-0.351,0.784-0.784C32.484,28.451,32.133,28.101,31.7,28.101z"/>
	</g>
</g>
</svg>
