<?xml version="1.0" encoding="utf-8"?>
<!-- Generator: Adobe Illustrator 23.0.6, SVG Export Plug-In . SVG Version: 6.00 Build 0)  -->
<svg version="1.1" id="Vrstva_1" xmlns="http://www.w3.org/2000/svg" xmlns:xlink="http://www.w3.org/1999/xlink" x="0px" y="0px"
	 viewBox="0 0 54 36.5" style="enable-background:new 0 0 54 36.5;" xml:space="preserve">
<style type="text/css">
	.st0{fill:#111B40;}
	.st1{fill:#D93832;}
</style>
<path class="st0" d="M13.6,0.5c3.6-0.3,7.5-0.4,10.7-0.5v4.7c-1.5,0.1-3.2,0.2-4.7,0.3C14,5.6,13,6.8,12.3,12.1
	c-0.5,4.1-0.5,8.2,0,12.3c0.7,5.3,1.7,6.5,7.2,7.1c1.6,0.2,3.2,0.3,4.7,0.3v4.7c-3.6,0-7.1-0.2-10.7-0.5c-9.9-0.8-11.8-2.4-13-9.5
	c-0.9-5.5-0.9-11,0-16.5C1.9,2.9,3.7,1.3,13.6,0.5"/>
<path class="st1" d="M54,18.2c0,2.1-0.2,5.3-0.7,8.3c-1.2,7.1-3,8.7-13,9.5c-3.6,0.3-7.5,0.4-10.7,0.5v-4.7c1.5,0,3.2-0.1,4.7-0.3
	c5.5-0.6,6.6-1.8,7.2-7.1c0.5-4.1,0.5-8.2,0-12.3C41,6.8,40,5.6,34.4,5c-1.6-0.2-3.2-0.3-4.7-0.3V0c3.2,0.1,7.1,0.2,10.7,0.5
	c9.9,0.8,11.8,2.4,13,9.5C53.8,12.9,54,16.1,54,18.2"/>
</svg>
